<svg xmlns="http://www.w3.org/2000/svg" xmlns:xlink="http://www.w3.org/1999/xlink" xmlns:lucid="lucid" width="1995.91" height="2000.33"><g transform="translate(422 878.3301124838391)" lucid:page-tab-id="0_0"><path d="M-500-1000h2500v2500H-500z" fill="#fff"/><path d="M-420-822.08a6 6 0 0 1 6-6h1979.9a6 6 0 0 1 6 6V1114a6 6 0 0 1-6 6H-414a6 6 0 0 1-6-6z" stroke="#000" stroke-width="4" fill-opacity="0"/><path d="M-420-870.33a6 6 0 0 1 6-6h174.78a6 6 0 0 1 6 6v24.25a6 6 0 0 1-6 6H-414a6 6 0 0 1-6-6z" stroke="#000" stroke-width="4"/><use xlink:href="#a" transform="matrix(1,0,0,1,-412,-868.3301124838391) translate(0 16.589501953125)"/><use xlink:href="#b" transform="matrix(1,0,0,1,-412,-868.3301124838391) translate(101.59250976562501 16.589501953125)"/><path d="M-331.9-742.08a6 6 0 0 1 6-6H865.9a6 6 0 0 1 6 6v428a6 6 0 0 1-6 6H-325.9a6 6 0 0 1-6-6z" stroke="#fc9432" stroke-width="4" fill-opacity="0"/><path d="M-331.9-796.96a6 6 0 0 1 6-6h270.1a6 6 0 0 1 6 6v30.88a6 6 0 0 1-6 6h-270.1a6 6 0 0 1-6-6z" stroke="#fc9432" stroke-width="4" fill="#fc9432"/><use xlink:href="#c" transform="matrix(1,0,0,1,-323.90502296742534,-794.9633872234225) translate(0 21.58376736111111)"/><use xlink:href="#d" transform="matrix(1,0,0,1,-323.90502296742534,-794.9633872234225) translate(87.73871527777779 21.58376736111111)"/><use xlink:href="#e" transform="matrix(1,0,0,1,-323.90502296742534,-794.9633872234225) translate(103.02734375 21.58376736111111)"/><use xlink:href="#f" transform="matrix(1,0,0,1,-323.90502296742534,-794.9633872234225) translate(115.67925347222223 21.58376736111111)"/><use xlink:href="#g" transform="matrix(1,0,0,1,-323.90502296742534,-794.9633872234225) translate(153.83029513888889 21.58376736111111)"/><path d="M940-502.07a6 6 0 0 1 6-6h559.9a6 6 0 0 1 6 6V1014a6 6 0 0 1-6 6H946a6 6 0 0 1-6-6z" stroke="#00c2a8" stroke-width="4" fill-opacity="0"/><path d="M940-556.96a6 6 0 0 1 6-6h285.3a6 6 0 0 1 6 6v30.88a6 6 0 0 1-6 6H946a6 6 0 0 1-6-6z" stroke="#00c2a8" stroke-width="4" fill="#00c2a8"/><use xlink:href="#c" transform="matrix(1,0,0,1,948,-554.9633872234225) translate(0 21.58376736111111)"/><use xlink:href="#h" transform="matrix(1,0,0,1,948,-554.9633872234225) translate(87.73871527777779 21.58376736111111)"/><use xlink:href="#e" transform="matrix(1,0,0,1,948,-554.9633872234225) translate(107.5412326388889 21.58376736111111)"/><use xlink:href="#i" transform="matrix(1,0,0,1,948,-554.9633872234225) translate(120.19314236111111 21.58376736111111)"/><path d="M-331.9-222.07a6 6 0 0 1 6-6H865.9a6 6 0 0 1 6 6V167a6 6 0 0 1-6 6H-325.9a6 6 0 0 1-6-6z" stroke="#fcce14" stroke-width="4" fill-opacity="0"/><path d="M-331.9-276.96a6 6 0 0 1 6-6h214.75a6 6 0 0 1 6 6v30.88a6 6 0 0 1-6 6H-325.9a6 6 0 0 1-6-6z" stroke="#fcce14" stroke-width="4" fill="#fcce14"/><use xlink:href="#c" transform="matrix(1,0,0,1,-323.90502296742534,-274.96338722342244) translate(0 21.58376736111111)"/><use xlink:href="#j" transform="matrix(1,0,0,1,-323.90502296742534,-274.96338722342244) translate(87.73871527777779 21.58376736111111)"/><use xlink:href="#e" transform="matrix(1,0,0,1,-323.90502296742534,-274.96338722342244) translate(107.71484375 21.58376736111111)"/><use xlink:href="#k" transform="matrix(1,0,0,1,-323.90502296742534,-274.96338722342244) translate(120.36675347222223 21.58376736111111)"/><path d="M-74.4 423.55a6 6 0 0 1 6-6h348a6 6 0 0 1 6 6v293a6 6 0 0 1-6 6h-348a6 6 0 0 1-6-6z" stroke="#e08fff" stroke-width="4" fill-opacity="0"/><path d="M-74.4 368.66a6 6 0 0 1 6-6H146a6 6 0 0 1 6 6v30.9a6 6 0 0 1-6 6H-68.4a6 6 0 0 1-6-6z" stroke="#e08fff" stroke-width="4" fill="#e08fff"/><use xlink:href="#c" transform="matrix(1,0,0,1,-66.40502296742534,370.65997310046413) translate(0 21.58376736111111)"/><use xlink:href="#l" transform="matrix(1,0,0,1,-66.40502296742534,370.65997310046413) translate(87.73871527777779 21.58376736111111)"/><use xlink:href="#e" transform="matrix(1,0,0,1,-66.40502296742534,370.65997310046413) translate(108.34418402777779 21.58376736111111)"/><use xlink:href="#m" transform="matrix(1,0,0,1,-66.40502296742534,370.65997310046413) translate(120.99609375 21.58376736111111)"/><path d="M-240.9-708.08h105.72c3.97 0 7.2 3.23 7.2 7.15v55.57c0 4-3.23 7.22-7.2 7.22H-240.9c-3.95 0-7.2-3.23-7.2-7.22v-55.57c0-3.93 3.25-7.15 7.2-7.15z" fill="#29aae1"/><path d="M-159.53-703.74H-136v8.7h-23.53zM-164.8-671.04c0 12.3-9.97 22.25-22.33 22.25-12.37 0-22.33-9.93-22.33-22.25 0-12.25 9.97-22.25 22.33-22.25 12.35 0 22.3 10 22.3 22.25z" fill="#fff"/><path d="M-169.38-670.98c0 9.74-7.8 17.58-17.52 17.58-9.84 0-17.63-7.85-17.63-17.58 0-9.65 7.8-17.5 17.63-17.5 9.72 0 17.53 7.85 17.53 17.5z" fill="#54bbe7"/><path d="M-170.57-670.84c0 9.04-7.44 16.38-16.44 16.38-9.13 0-16.46-7.34-16.46-16.38 0-9.1 7.33-16.44 16.45-16.44 9 0 16.43 7.35 16.43 16.44z" fill="#fff"/><use xlink:href="#n" transform="matrix(1,0,0,1,-278.09497703257466,-638.0753663900891) translate(43.879123263888886 21.65407986111112)"/><use xlink:href="#o" transform="matrix(1,0,0,1,-278.09497703257466,-638.0753663900891) translate(19.340277777777786 53.91970486111112)"/><use xlink:href="#p" transform="matrix(1,0,0,1,-278.09497703257466,-638.0753663900891) translate(123.82161458333333 53.91970486111112)"/><use xlink:href="#q" transform="matrix(1,0,0,1,-278.09497703257466,-638.0753663900891) translate(25.498046875 86.18532986111111)"/><use xlink:href="#r" transform="matrix(1,0,0,1,-278.09497703257466,-638.0753663900891) translate(28.31705729166667 118.45095486111111)"/><use xlink:href="#s" transform="matrix(1,0,0,1,-278.09497703257466,-638.0753663900891) translate(82.32530381944446 118.45095486111111)"/><use xlink:href="#t" transform="matrix(1,0,0,1,-278.09497703257466,-638.0753663900891) translate(57.431640625 150.71657986111111)"/><use xlink:href="#u" transform="matrix(1,0,0,1,-278.09497703257466,-638.0753663900891) translate(32.91992187500001 182.98220486111111)"/><use xlink:href="#v" transform="matrix(1,0,0,1,-278.09497703257466,-638.0753663900891) translate(43.34743923611111 215.24782986111111)"/><use xlink:href="#w" transform="matrix(1,0,0,1,-278.09497703257466,-638.0753663900891) translate(27.906901041666664 247.51345486111111)"/><path d="M142.94-547.6h97.44c1.33 0 1.33 0 1.33 1.35v66.77c0 1.34 0 1.34-1.3 1.34h-97.46c-1.3 0-1.3 0-1.3-1.34v-66.77c0-1.34 0-1.34 1.3-1.34z" fill="#999"/><path d="M134.06-547.5h5.4v69.3h-5.4z" fill="#29aae1"/><path d="M136.22-512.93c0 19.1-.96 34.5-2.16 34.5-1.2 0-2.16-15.4-2.16-34.5 0-19.12.97-34.52 2.16-34.52 1.2 0 2.16 15.4 2.16 34.52zM243.03-548h6.35v69.5h-6.35z" fill="#29aae1"/><path d="M251.9-513.3c0 19.26-1.08 34.8-2.52 34.8s-2.63-15.54-2.63-34.78c0-19.2 1.2-34.8 2.63-34.8 1.44 0 2.53 15.62 2.53 34.8z" fill="#29aae1"/><path d="M248.43-541.77c0 .63-.6 1.18-1.44 1.18-.74 0-1.46-.54-1.46-1.17 0-.63.72-1.2 1.45-1.2.82 0 1.43.57 1.43 1.2zM248.43-537.64c0 .63-.6 1.18-1.44 1.18-.74 0-1.46-.55-1.46-1.18 0-.63.72-1.2 1.45-1.2.82 0 1.43.57 1.43 1.2zM248.78-533.5c0 .68-.72 1.17-1.44 1.17-.84 0-1.44-.5-1.44-1.18 0-.64.6-1.2 1.44-1.2.72 0 1.44.56 1.44 1.2zM154.22-541.2h36v15.38h-36zM194.54-541.2h36v15.38h-36zM194.66-522.03h36v15.4h-36zM194.54-502.3h36v15.4h-36zM154-502.3h36v15.4h-36zM155.66-521.9h12.84c1.44 0 1.44 0 1.44 1.4v12.54c0 1.4 0 1.4-1.44 1.4h-12.84c-1.3 0-1.3 0-1.3-1.4l-.02-12.54c0-1.4 0-1.4 1.32-1.4zM175.7-522.1h12.73c1.44 0 1.44 0 1.44 1.4v12.8c0 1.33 0 1.33-1.44 1.33H175.7c-1.44 0-1.44 0-1.44-1.32v-12.8c0-1.4 0-1.4 1.45-1.4z" fill="#fff"/><use xlink:href="#x" transform="matrix(1,0,0,1,101.90502296742534,-478.07536639008913) translate(4.246961805555571 21.95095486111111)"/><use xlink:href="#y" transform="matrix(1,0,0,1,101.90502296742534,-478.07536639008913) translate(79.58333333333334 21.95095486111111)"/><use xlink:href="#z" transform="matrix(1,0,0,1,101.90502296742534,-478.07536639008913) translate(93.84114583333334 21.95095486111111)"/><use xlink:href="#A" transform="matrix(1,0,0,1,101.90502296742534,-478.07536639008913) translate(31.189236111111114 54.21657986111111)"/><use xlink:href="#B" transform="matrix(1,0,0,1,101.90502296742534,-478.07536639008913) translate(52.141927083333336 54.21657986111111)"/><path d="M511.9-688.08h125v37.72h-125z" fill="#29aae1"/><path d="M517.9-646.04H630.8v2.92H517.9z" fill="#2188b4"/><path d="M599.03-685.15h33.5v30.74h-33.5z" stroke="#fff" stroke-width="2.25" fill="#54bbe7"/><path d="M600.53-679.75l3.13-3.06v1.8h4.37l16.75 20.15h2.75v-1.93l3.13 3.05-3.13 3.02v-1.72h-4.25l-16.75-20.16h-2.75v1.85zm15 12.33l-7.5 8.87h-4.38v1.8l-3.12-3.02 3.13-3.06v1.8h2.87l7.25-8.55zm15.25-12.2l-3.13 3.02v-1.75h-2.87l-7.25 8.55-1.75-2.17 7.63-8.8h4.25v-1.9zM520.9-681.4h11.5v4.85h-11.5zm3.25 4.85h5v3.6h-5zm-3.25 11.92h11.5v4.86h-11.5zm3.25 4.86h5v3.6h-5zm15.5-21.64h11.5v4.85h-11.5zm3.25 4.85h5v3.6h-5zm-3.25 11.92h11.5v4.86h-11.5zm3.25 4.86h5v3.6h-5zm15.5-21.64h11.5v4.85h-11.5zm3.25 4.85h5v3.6h-5zm-3.25 11.92h11.5v4.86h-11.5zm3.25 4.86h5v3.6h-5zm15.5-21.64h11.5v4.85h-11.5zm3.25 4.85h5v3.6h-5zm-3.25 11.92h11.5v4.86h-11.5zm3.25 4.86h5v3.6h-5z" fill="#fff"/><use xlink:href="#C" transform="matrix(1,0,0,1,481.90502296742534,-643.0753663900891) translate(30.69986979166667 23.08376736111111)"/><path d="M1264.1 722.55l-72.3 117.84 150 .83-77.7-118.68z" fill="none"/><path d="M1260.04 840.4c-36.9-.25-67.2-.5-67.2-.6-.15-.13 70.95-116.17 71.25-116.05.13 0 50.38 76.44 74.84 113.88l2.24 3.36-7.05-.13c-3.75 0-37.2-.24-74.1-.48z" fill="#29aae1"/><path d="M1230.63 778.47l68.85-.48-32.1 61.43-36.75-60.96z" fill="none"/><path d="M1293.63 797.07c0 18.72-12.75 33.84-28.65 33.84-15.75 0-28.5-15.1-28.5-33.83 0-18.72 12.75-33.84 28.5-33.84 15.9 0 28.65 15.12 28.65 33.84z" fill="#fff"/><path d="M1246.23 809.2l-19.94-33.5 37.34-.23c20.54-.24 37.5-.24 37.64-.24 0 0-34.64 67.2-34.8 67.44-.14 0-9.14-15-20.25-33.48z" fill="#fff"/><path d="M1290.48 796.83c0 15.24-11.4 27.48-25.5 27.48-13.94 0-25.35-12.23-25.35-27.47 0-15.12 11.4-27.48 25.35-27.48 14.1 0 25.5 12.36 25.5 27.48z" fill="#54bbe7"/><path d="M1286.6 796.83c0 13.08-9.62 23.52-21.3 23.52-11.87 0-21.46-10.44-21.46-23.52 0-12.96 9.6-23.52 21.45-23.52 11.68 0 21.3 10.57 21.3 23.53z" fill="#fff"/><path d="M1240.98 793.7h49.5v3.73h-49.5z" fill="#54bbe7"/><path d="M1263.48 771.03h4.36v52.2h-4.36z" fill="#54bbe7"/><path d="M1246.1 808.95h40.63v.84h-40.64zM1242.63 784.95h41.1v.84h-41.1z" fill="#54bbe7"/><use xlink:href="#D" transform="matrix(1,0,0,1,1161.784931097724,842.5479939337974) translate(5.282118055555557 23.08376736111111)"/><use xlink:href="#y" transform="matrix(1,0,0,1,1161.784931097724,842.5479939337974) translate(70.92881944444444 23.08376736111111)"/><use xlink:href="#E" transform="matrix(1,0,0,1,1161.784931097724,842.5479939337974) translate(85.18663194444444 23.08376736111111)"/><path d="M-266.9-128.07h190.4V-2.62h-190.4zm87.2 127.5h18.2v9.34h-18.2zm-79.6 11.55h176.4l14.8 30.94h-200z" fill="#29aae1"/><path d="M-235.1 16.09l4.8-.02v4.1l-4.8-.02zm8-.02h4.8v4.1l-4.8-.02zm8 0h4.8v4.1l-4.8-.02zm8 0h4.8v4.1l-4.8-.02zm8 0h4.8v4.1l-4.8-.02zm8.2 0h4.8v4.1l-4.8-.02zm7.8 0h4.8v4.1l-4.8-.02zm8.2 0h4.8v4.1l-4.8-.02zm7.8 0h4.8v4.1l-4.8-.02zm8.2 0h4.8v4.1l-4.8-.02zm8 0h4.8v4.1l-4.8-.02zm8 0h4.8v4.1l-4.8-.02zm8 0h4.8v4.1l-4.8-.02zm8 0h4.8v4.1l-4.8-.02zm8 0h4.8v4.1l-4.8-.02zm8 0h4.8v4.1l-4.8-.02zm-101.2 6.8h4.8v4.1l-4.8-.02zm8.4 0h4.8v4.1l-4.8-.02zm8.6 0h4.8v4.1l-4.8-.02zm8.4 0h4.8v4.1l-4.8-.02zm8.6 0h4.8v4.1l-4.8-.02zm8.4 0h4.8v4.1l-4.8-.02zm8.6 0h4.8v4.1l-4.8-.02zm8.4 0h4.8v4.1l-4.8-.02zm8.4 0h4.8v4.1l-4.8-.02zm8.6 0h4.8v4.1l-4.8-.02zm7.2 0h4.8v4.1l-4.8-.02zm-67.6 11.22h63.4v6.3h-63.4zm-58.2-154.53h173.8v112.2h-173.8z" fill="#fff"/><use xlink:href="#F" transform="matrix(1,0,0,1,-298.09497703257466,41.92463360991087) translate(72.76801215277777 23.08376736111111)"/><use xlink:href="#y" transform="matrix(1,0,0,1,-298.09497703257466,41.92463360991087) translate(138.20855034722223 23.08376736111111)"/><use xlink:href="#G" transform="matrix(1,0,0,1,-298.09497703257466,41.92463360991087) translate(152.46636284722223 23.08376736111111)"/><path d="M5.6 497.55h200v118.03H5.6V497.55z" fill="#29aae1"/><path d="M89.8 614.7h35v20.6h-35z" fill="#29aae1"/><path d="M12.2 501.9H198v106.72H12.2z" fill="#fff"/><path d="M14.8 504.5h179.8V606H14.8z" fill="#999"/><path d="M89.8 615.58H125v1H89.8z" fill="#fff"/><path d="M107 626.16h.2c31.2 0 31.2 0 31.2 8.27 0 8.26 0 8.26-31.2 8.26h-.2c-31.2 0-31.2 0-31.2-8.27s0-8.27 31.2-8.27z" fill="#29aae1"/><use xlink:href="#H" transform="matrix(1,0,0,1,-24.40502296742534,642.5479939337974) translate(47.22547743055557 23.08376736111111)"/><use xlink:href="#I" transform="matrix(1,0,0,1,-24.40502296742534,642.5479939337974) translate(168.427734375 23.08376736111111)"/><path d="M-313.55 516.88v-.2a19.14 19.14 0 0 1 19.15-19.13 19.14 19.14 0 0 1 19.13 19.14 19.14 19.14 0 0 1-19.13 19.13 19.14 19.14 0 0 1-19.15-19.14v-.2M-331.9 548a10.3 10.3 0 0 1 10.3-10.3h54.18a10.3 10.3 0 0 1 10.3 10.3 10.3 10.3 0 0 1-10.3 10.3h-54.2A10.3 10.3 0 0 1-331.9 548zm17.4 6.97h39.37v42.48h-39.38zm0 40.9h17.77v46.82h-17.77zm22.87.42h16.5v46.1h-16.5zM-331.9 548h13.64v38.43h-13.64zm61.12 0h13.65v39h-13.65z" fill="#29aae1"/><use xlink:href="#J" transform="matrix(1,0,0,1,-361.90502296742534,642.5479939337974) translate(-9.328342013888886 23.08376736111111)"/><path d="M210.35-663.6h-32.37l-.7.06-.62.14-.58.24-.54.33-.48.4-.4.5-.34.53-.24.58-.14.62-.06.7v109.9h-3.95v-110.05l.1-1.17.28-1.22.5-1.16.65-1.07.8-.95.96-.8 1.08-.67 1.16-.47 1.22-.3 1.17-.08h32.52zm278.82 0H435.2v-3.95h53.97z" stroke="#3a414a" stroke-width=".05" fill="#3a414a"/><path d="M173.88-547.6h-3.95v-2.04h3.95z" fill="#3a414a"/><path stroke="#3a414a" stroke-width=".05" fill="#3a414a"/><path d="M505.43-665.58l-14.26 4.64v-9.27z" fill="#3a414a"/><path d="M511.82-665.58l-22.63 7.36v-14.7zm-18.68 1.92l5.9-1.92-5.9-1.9z" stroke="#3a414a" stroke-width=".05" fill="#3a414a"/><use xlink:href="#K" transform="matrix(1,0,0,1,210.3500269356464,-679.0193768067558) translate(0.0049999999999954525 21.52777777777778)"/><use xlink:href="#L" transform="matrix(1,0,0,1,210.3500269356464,-679.0193768067558) translate(138.95899305555554 21.52777777777778)"/><path d="M372.72-20.45H297.7v-3.95h75.02zm117.64 0h-54.3v-3.95h54.3z" stroke="#3a414a" stroke-width=".05" fill="#3a414a"/><path d="M297.74-20.45H297l-2.6-3.95h3.34z" fill="#3a414a"/><path stroke="#3a414a" stroke-width=".05" fill="#3a414a"/><path d="M506.62-22.42l-14.26 4.64v-9.27z" fill="#3a414a"/><path d="M513-22.42l-22.62 7.35v-14.7zm-18.67 1.92l5.9-1.92-5.9-1.92z" stroke="#3a414a" stroke-width=".05" fill="#3a414a"/><use xlink:href="#M" transform="matrix(1,0,0,1,372.71904801635077,-35.86389793282676) translate(0.004999999999999005 21.52777777777778)"/><path d="M-313.55 861.88v-.2a19.14 19.14 0 0 1 19.15-19.13 19.14 19.14 0 0 1 19.13 19.14 19.14 19.14 0 0 1-19.13 19.13 19.14 19.14 0 0 1-19.15-19.14v-.2M-331.9 893a10.3 10.3 0 0 1 10.3-10.3h54.18a10.3 10.3 0 0 1 10.3 10.3 10.3 10.3 0 0 1-10.3 10.3h-54.2A10.3 10.3 0 0 1-331.9 893zm17.4 6.97h39.37v42.48h-39.38zm0 40.9h17.77v46.82h-17.77zm22.87.42h16.5v46.1h-16.5zM-331.9 893h13.64v38.43h-13.64zm61.12 0h13.65v39h-13.65z" fill="#29aae1"/><use xlink:href="#N" transform="matrix(1,0,0,1,-361.90502296742534,987.5479939337974) translate(9.443359375000007 23.08376736111111)"/><path d="M-41.25-44.96l1.22.3 1.16.47 1.07.67.95.8.8.96.67 1.07.48 1.16.3 1.22.08 1.17v117.9l.06.7.14.6.24.6.33.53.4.48.5.4.53.34.58.24.62.15.7.04H1.66v3.95h-32.23l-1.17-.1-1.22-.3-1.16-.47-1.07-.66-.94-.8-.8-.96-.67-1.06-.48-1.16-.3-1.22-.1-1.17V-37l-.05-.7-.14-.62-.24-.58-.34-.54-.4-.48-.5-.4-.53-.34-.58-.24-.62-.15-.7-.05H-74.5v-3.95h32.08zM231.87 80.9l-.1 1.16-.28 1.22-.5 1.16-.65 1.07-.8.96-.96.8-1.08.67-1.16.48-1.2.3-1.2.1h-59.94v-3.96h59.8l.7-.05.62-.16.58-.24.54-.33.48-.4.4-.5.34-.53.24-.58.15-.62.05-.7V74.8h3.95z" stroke="#3a414a" stroke-width=".05" fill="#3a414a"/><path d="M-74.44-41.1h-2.06v-3.95h2.06z" fill="#3a414a"/><path stroke="#3a414a" stroke-width=".05" fill="#3a414a"/><path d="M230.06 53.8h-.33l.17-.5z" fill="#3a414a"/><path d="M232.14 53.8h-4.5l2.26-6.9z" stroke="#3a414a" stroke-width=".05" fill="#3a414a"/><use xlink:href="#O" transform="matrix(1,0,0,1,1.6597352068738758,73.37235267706838) translate(0.0049999999999954525 21.52777777777778)"/><use xlink:href="#P" transform="matrix(1,0,0,1,1.6597352068738758,73.37235267706838) translate(101.69770833333332 21.52777777777778)"/><path d="M3.94-519.15l.06.7.15.62.24.58.32.54.4.47.5.4.52.34.6.25.6.14.7.05h101.13v3.95H7.9l-1.18-.1-1.22-.3-1.16-.46-1.06-.66-.96-.8-.8-.96-.66-1.07-.48-1.16-.3-1.23L0-519v-60.63h3.96zm-6.72-155.8l1.2.28 1.17.48 1.06.67.95.8.82.96.66 1.07.48 1.16.3 1.22.08 1.17v60.63H0V-667l-.06-.7-.15-.62-.25-.58-.33-.54-.4-.48-.5-.4-.53-.34-.6-.24-.6-.14-.7-.06H-126v-3.95H-3.94z" stroke="#3a414a" stroke-width=".05" fill="#3a414a"/><path d="M-125.92-671.1h-2.05v-3.95h2.05z" fill="#3a414a"/><path stroke="#3a414a" stroke-width=".05" fill="#3a414a"/><path d="M125.44-513.08l-14.27 4.64v-9.27z" fill="#3a414a"/><path d="M131.83-513.08l-22.63 7.36v-14.7zm-18.68 1.92l5.9-1.92-5.9-1.9z" stroke="#3a414a" stroke-width=".05" fill="#3a414a"/><use xlink:href="#Q" transform="matrix(1,0,0,1,-45.0264576221882,-606.5193768067558) translate(0.005000000000002558 21.52777777777778)"/><path d="M688.56-361.65l.06.7.15.62.24.58.34.54.4.47.5.4.52.33.6.25.6.14.7.05h405.88v3.95H692.5l-1.16-.1-1.22-.3-1.15-.46-1.07-.66-.95-.8-.82-.96-.65-1.07-.48-1.16-.3-1.23-.1-1.17v-59.38h3.96zm-6.72-153.3l1.2.28 1.17.48 1.08.67.95.8.8.96.67 1.07.48 1.16.3 1.22.08 1.17v59.38h-3.95V-507l-.04-.7-.15-.62-.23-.58-.33-.54-.4-.48-.5-.4-.53-.34-.57-.24-.6-.15-.72-.05H253.9v-3.95h426.77z" stroke="#3a414a" stroke-width=".05" fill="#3a414a"/><path d="M253.95-511.1h-2.14l.1-2.18-.07-1.77h2.12z" fill="#3a414a"/><path stroke="#3a414a" stroke-width=".05" fill="#3a414a"/><path d="M1114.8-355.57l-14.26 4.63v-9.27z" fill="#3a414a"/><path d="M1121.2-355.57l-22.63 7.35v-14.7zm-18.68 1.9l5.9-1.9-5.9-1.92z" stroke="#3a414a" stroke-width=".05" fill="#3a414a"/><use xlink:href="#R" transform="matrix(1,0,0,1,603.3963387740622,-447.7693768067559) translate(0.0049999999999954525 21.52777777777778)"/><use xlink:href="#S" transform="matrix(1,0,0,1,603.3963387740622,-447.7693768067559) translate(72.40083333333332 21.52777777777778)"/><path d="M1100.07 776.47l.06.7.14.62.24.57.34.54.4.5.5.4.53.33.58.24.62.15.7.05h101.03v3.95h-101.18l-1.17-.1-1.22-.28-1.16-.48-1.07-.65-.95-.8-.8-.96-.67-1.07-.48-1.16-.3-1.2-.08-1.17V76.56h3.95zM1093.34-.97l1.22.3 1.16.47 1.07.66.94.8.8.96.67 1.07.48 1.15.3 1.2.1 1.2v42.82h-3.96V7l-.06-.7-.14-.63-.24-.58-.33-.55-.4-.48-.5-.4-.53-.34-.58-.24-.62-.16-.7-.05h-779v-3.96h779.15z" stroke="#3a414a" stroke-width=".05" fill="#3a414a"/><path d="M313.07 2.9h-.75l-2.6-3.96h3.35z" fill="#3a414a"/><path stroke="#3a414a" stroke-width=".05" fill="#3a414a"/><path d="M1221.47 782.55l-14.27 4.63v-9.27z" fill="#3a414a"/><path d="M1227.86 782.55l-22.63 7.35v-14.7zm-18.68 1.92l5.9-1.92-5.9-1.92z" stroke="#3a414a" stroke-width=".05" fill="#3a414a"/><use xlink:href="#K" transform="matrix(1,0,0,1,963.6168954353525,49.6731295402213) translate(0.0049999999999954525 21.52777777777778)"/><use xlink:href="#T" transform="matrix(1,0,0,1,963.6168954353525,49.6731295402213) translate(138.95899305555554 21.52777777777778)"/><path d="M1383.76 776.63l-.1 1.17-.3 1.2-.46 1.17-.66 1.07-.8.95-.96.8-1.07.66-1.15.48-1.22.3-1.17.08h-71.12v-3.95h70.97l.7-.05.63-.15.58-.24.55-.33.48-.4.4-.5.34-.53.24-.58.15-.62.06-.7V-213.8h3.96zm-6.73-1366.1l1.22.3 1.16.47 1.08.66.95.8.8.96.67 1.07.47 1.15.3 1.22.1 1.17v341h-3.96v-340.85l-.05-.7-.14-.63-.23-.58-.33-.55-.4-.48-.5-.4-.53-.34-.57-.24-.62-.15-.7-.06H218l-.7.05-.62.14-.58.23-.54.33-.48.4-.4.5-.34.53-.24.57-.14.62-.06.7v11.18h-3.95v-11.34l.1-1.17.28-1.22.5-1.16.65-1.08.8-.95.96-.8 1.08-.67 1.16-.48 1.22-.3 1.17-.08h1158.03z" stroke="#3a414a" stroke-width=".05" fill="#3a414a"/><path d="M1304.8 784.52h-.76l-2.6-3.95h3.35z" fill="#3a414a"/><path stroke="#3a414a" stroke-width=".05" fill="#3a414a"/><path d="M211.9-554.06l-4.63-14.26h9.27z" fill="#3a414a"/><path d="M211.9-547.67l-7.35-22.63h14.7zm-1.9-18.68l1.9 5.9 1.92-5.9z" stroke="#3a414a" stroke-width=".05" fill="#3a414a"/><use xlink:href="#U" transform="matrix(1,0,0,1,1328.2801567921683,-240.66795738028978) translate(0.005000000000002558 21.52777777777778)"/><path d="M513.1-70.75h70v120h-70z" fill="#29aae1"/><path d="M538.64 12.65h37.88v2.16h-37.88zm-.27 6h38.56v3.48h-38.56zm.13 7.56h38.58v3.5H538.5zM562.02-12.4v-.03a4.7 4.7 0 0 1 4.7-4.7 4.7 4.7 0 0 1 4.68 4.7 4.7 4.7 0 0 1-4.68 4.7 4.7 4.7 0 0 1-4.7-4.7v-.05" fill="#fff"/><path d="M563.7-12.4v-.03a2.87 2.87 0 0 1 2.88-2.87 2.87 2.87 0 0 1 2.87 2.87 2.87 2.87 0 0 1-2.88 2.87 2.87 2.87 0 0 1-2.87-2.87v-.03" fill="#54bbe7"/><use xlink:href="#V" transform="matrix(1,0,0,1,483.09497703257466,49.24677915050641) translate(23.10004340277778 21.95095486111111)"/><use xlink:href="#W" transform="matrix(1,0,0,1,483.09497703257466,49.24677915050641) translate(80.33745659722223 21.95095486111111)"/><use xlink:href="#X" transform="matrix(1,0,0,1,483.09497703257466,49.24677915050641) translate(19.58441840277778 54.21657986111111)"/><path d="M264.7-70.75L192.4 47.1l150 .83-77.7-118.68z" fill="none"/><path d="M260.65 47.1c-36.9-.25-67.2-.5-67.2-.6-.15-.13 70.95-116.17 71.25-116.05.15 0 50.4 76.44 74.85 113.88l2.25 3.36-7.05-.13c-3.75 0-37.2-.24-74.1-.48z" fill="#29aae1"/><path d="M231.25-14.83l68.85-.48L268 46.12l-36.75-60.96z" fill="none"/><path d="M294.25 3.77c0 18.72-12.75 33.84-28.65 33.84-15.75 0-28.5-15.1-28.5-33.83 0-18.72 12.75-33.84 28.5-33.84 15.9 0 28.65 15.12 28.65 33.84z" fill="#fff"/><path d="M246.85 15.9L226.9-17.6l37.35-.23c20.55-.24 37.5-.24 37.65-.24 0 0-34.65 67.2-34.8 67.44-.15 0-9.15-15-20.25-33.48z" fill="#fff"/><path d="M291.1 3.53c0 15.24-11.4 27.48-25.5 27.48-13.95 0-25.35-12.23-25.35-27.47 0-15.12 11.4-27.48 25.35-27.48 14.1 0 25.5 12.36 25.5 27.48z" fill="#54bbe7"/><path d="M287.2 3.53c0 13.08-9.6 23.52-21.3 23.52-11.85 0-21.45-10.44-21.45-23.52 0-12.96 9.6-23.52 21.45-23.52 11.7 0 21.3 10.57 21.3 23.53z" fill="#fff"/><path d="M241.6.4h49.5v3.73h-49.5z" fill="#54bbe7"/><path d="M264.1-22.27h4.35v52.2h-4.35z" fill="#54bbe7"/><path d="M246.7 15.65h40.65v.84H246.7zM243.25-8.35h41.1v.84h-41.1z" fill="#54bbe7"/><use xlink:href="#Y" transform="matrix(1,0,0,1,162.39784980959257,49.24677915050643) translate(38.935546875 23.08376736111111)"/><use xlink:href="#Z" transform="matrix(1,0,0,1,162.39784980959257,49.24677915050643) translate(80.67816840277777 23.08376736111111)"/><path d="M606.26-174.94H194.63l-.7.06-.62.14-.57.25-.54.33-.5.4-.4.5-.33.53-.24.58-.14.62-.07.7v154l.06.7.13.63.24.57.33.54.4.5.5.4.53.33.58.24.63.15.7.05h11.2v3.95h-11.35l-1.17-.1-1.2-.28-1.17-.48-1.07-.66-.95-.8-.8-.96-.66-1.07-.48-1.16-.3-1.2-.08-1.18v-154.3l.1-1.18.28-1.22.48-1.16.66-1.06.8-.96.96-.8 1.07-.67 1.16-.47 1.2-.3 1.18-.1h411.78zm595.47-7.9l-.1 1.17-.3 1.22-.46 1.16-.66 1.08-.8.95-.96.8-1.06.67-1.16.48-1.22.3-1.17.08H794.55v-3.95h399.13l.7-.04.6-.15.6-.23.54-.33.48-.4.4-.5.33-.53.25-.57.14-.62.06-.7v-73.52h3.95zM1195-357.46l1.22.3 1.16.47 1.06.67.96.8.8.96.66 1.07.48 1.16.3 1.22.1 1.17v71.13h-3.96v-70.98l-.06-.7-.14-.62-.25-.58-.32-.54-.4-.48-.48-.4-.54-.34-.6-.24-.6-.15-.7-.05h-31.93v-3.95h32.08z" stroke="#3a414a" stroke-width=".05" fill="#3a414a"/><path d="M1161.8-353.6h-1.14l-1.8-3.95h2.95z" fill="#3a414a"/><path stroke="#3a414a" stroke-width=".05" fill="#3a414a"/><path d="M222.08-10.75l-14.26 4.63v-9.27z" fill="#3a414a"/><path d="M228.47-10.75L205.84-3.4v-14.7zm-18.68 1.9l5.9-1.9-5.9-1.92z" stroke="#3a414a" stroke-width=".05" fill="#3a414a"/><g><use xlink:href="#aa" transform="matrix(1,0,0,1,606.2578461362921,-190.358304036458) translate(0.0049999999999954525 21.52777777777778)"/><use xlink:href="#ab" transform="matrix(1,0,0,1,606.2578461362921,-190.358304036458) translate(94.0696701388889 21.52777777777778)"/></g><path d="M141.16 275.14H116.6l-.7.06-.62.15-.58.24-.54.3-.48.43-.4.47-.34.54-.24.6-.15.6-.05.7V474.8h-3.95V279.1l.1-1.18.28-1.22.48-1.16.67-1.06.8-.96.96-.8 1.07-.67 1.16-.47 1.2-.3 1.18-.1h24.72zm128.2-7.9l-.08 1.18-.3 1.2-.47 1.17-.64 1.06-.82.95-.95.82-1.08.66-1.16.48-1.2.3-1.2.08h-24.7v-3.95h24.56l.7-.06.62-.15.58-.25.54-.33.48-.4.4-.5.34-.53.24-.6.15-.6.05-.7V74.8h3.95zm0-213.44h-3.94v-3.02h3.95z" stroke="#3a414a" stroke-width=".05" fill="#3a414a"/><path d="M265.74 47.12l1.36 2.25 1.15-2.23h1.12v3.7h-3.95v-3.72z" fill="#3a414a"/><path stroke="#3a414a" stroke-width=".05" fill="#3a414a"/><path d="M110.52 491.08l-4.63-14.27h9.26z" fill="#3a414a"/><path d="M110.52 497.47l-7.35-22.64h14.7zm-1.9-18.7l1.9 5.92 1.92-5.9z" stroke="#3a414a" stroke-width=".05" fill="#3a414a"/><g><use xlink:href="#ac" transform="matrix(1,0,0,1,141.163055444407,243.58988972987063) translate(0.6885937500000026 21.52777777777778)"/><use xlink:href="#ad" transform="matrix(1,0,0,1,141.163055444407,243.58988972987063) translate(0.005000000000002558 53.79340277777778)"/><use xlink:href="#ae" transform="matrix(1,0,0,1,141.163055444407,243.58988972987063) translate(20.350052083333335 53.79340277777778)"/></g><path d="M306.87 588.3l-.1 1.16-.28 1.22-.5 1.16-.64 1.07-.82.96-.95.8-1.08.67-1.16.47-1.2.3-1.2.1h-91.36v-3.96h91.22l.7-.06.62-.14.58-.24.54-.33.48-.4.4-.5.34-.53.24-.58.15-.62.05-.7V383.9h3.95zm0-231.3h-3.95V74.8h3.95z" stroke="#3a414a" stroke-width=".05" fill="#3a414a"/><path d="M207.65 596.2h-2.06v-3.96h2.05z" fill="#3a414a"/><path stroke="#3a414a" stroke-width=".05" fill="#3a414a"/><path fill="#3a414a"/><path d="M306.96 53.8h-4.13l2.07-6.35z" stroke="#3a414a" stroke-width=".05" fill="#3a414a"/><g><use xlink:href="#O" transform="matrix(1,0,0,1,199.3368689068148,357.0014656853842) translate(0.0049999999999954525 21.52777777777778)"/><use xlink:href="#af" transform="matrix(1,0,0,1,199.3368689068148,357.0014656853842) translate(101.69770833333332 21.52777777777778)"/></g><path d="M1156.9-425.03c11 0 19.9 8.55 19.9 22.76 0 14.07-8.9 22.77-19.9 22.77v-4.8c7 0 13.7-6.07 13.7-17.96 0-11.9-6.7-18-13.7-18zM1122.9-424.9c-11 0-19.5 8.42-19.5 22.63 0 14.07 8.5 22.63 19.5 22.63v-5.08c-7 0-12.9-5.65-12.9-17.54 0-11.9 5.9-17.55 12.9-17.55z" fill="#54bbe7"/><path d="M1150.4-415.6c6.5 0 12.3 4.78 12.3 12.9 0 7.97-5.8 12.9-12.3 12.9v-5.2c2.5 0 4.9-2.05 4.9-7.7 0-5.8-2.4-7.7-4.9-7.7zM1129.2-415.6c-6.3 0-12.3 4.78-12.3 12.9 0 7.97 6 12.9 12.3 12.9v-5.36c-2.3 0-4.6-1.88-4.6-7.54 0-5.8 2.3-7.54 4.6-7.54z" fill="#54bbe7"/><path d="M1142.1-393.13h-5.5l-43.9 107.6c-.8 1.88-.8 1.88 1.9 2.16 2.8.3 2.8.3 3.6-1.44z" fill="#29aae1"/><path d="M1137.7-393.13h4.9l48.4 106c1 2.02 1 2.02-2.1 2.3-3.1.45-3.1.45-4.1-1.73z" fill="#29aae1"/><path d="M1095.1-289.17l81.4-25.08 2.5 2.46-81.4 24.95z" fill="#29aae1"/><path d="M1106.8-313.52l82.2 24.2-2.5 2.47-82.1-24.35zM1114.7-335l39.3-23.9 1.7 1.73-39.2 24.07z" fill="#29aae1"/><path d="M1126.9-358.48l41 24.5-3.4 1.03-40.9-24.5z" fill="#29aae1"/><path d="M1136.12-402.52v-.04a3.33 3.33 0 0 1 3.34-3.33 3.33 3.33 0 0 1 3.33 3.34 3.33 3.33 0 0 1-3.35 3.34 3.33 3.33 0 0 1-3.33-3.33v-.04" fill="#54bbe7"/><g><use xlink:href="#ag" transform="matrix(1,0,0,1,1061.9050229674253,-283.07536639008913) translate(9.888237847222229 23.08376736111111)"/><use xlink:href="#ah" transform="matrix(1,0,0,1,1061.9050229674253,-283.07536639008913) translate(81.23155381944446 23.08376736111111)"/></g><path d="M-162.4 917.02h-92.73v-3.95h92.72zm269.97-7.9l-.1 1.18-.28 1.2-.5 1.17-.65 1.07-.8.95-.96.8-1.08.66-1.16.48-1.22.3-1.17.08h-147.8v-3.95H99.5l.7-.05.62-.15.58-.24.54-.33.48-.4.4-.5.34-.53.24-.58.14-.62.06-.7V672.1h3.95z" stroke="#3a414a" stroke-width=".05" fill="#3a414a"/><path d="M-255.08 917.02h-2.05v-3.95h2.05z" fill="#3a414a"/><path stroke="#3a414a" stroke-width=".05" fill="#3a414a"/><path fill="#3a414a"/><path d="M106.7 646.1h-2.2l1.1-3.36z" stroke="#3a414a" stroke-width=".05" fill="#3a414a"/><g><use xlink:href="#ai" transform="matrix(1,0,0,1,-162.40717596322884,901.6039835171308) translate(0.005000000000002558 21.52777777777778)"/></g><path d="M-209 572.02h-46.13v-3.95H-209zm191.86 0h-110.5v-3.95h110.5z" stroke="#3a414a" stroke-width=".05" fill="#3a414a"/><path d="M-255.08 572.02h-2.05v-3.95h2.05z" fill="#3a414a"/><path stroke="#3a414a" stroke-width=".05" fill="#3a414a"/><path d="M-.88 570.05l-14.26 4.63v-9.27z" fill="#3a414a"/><path d="M5.5 570.05l-22.62 7.35v-14.7zm-18.67 1.92l5.9-1.92-5.9-1.92z" stroke="#3a414a" stroke-width=".05" fill="#3a414a"/><g><use xlink:href="#aj" transform="matrix(1,0,0,1,-208.98982395105372,556.6039835171308) translate(0.005000000000002558 21.52777777777778)"/></g><defs><path fill="#fff" d="M52 0l541-1490h220L1361 0h-200l-149-416H398L254 0H52zm404-582h497c-103-290-145-390-251-756-108 377-145 460-246 756" id="ak"/><path fill="#fff" d="M158 0v-1118h174v172h12c41-113 157-188 290-188 26 0 70 2 91 3v181c-11-2-60-10-108-10-161 0-279 109-279 260V0H158" id="al"/><path fill="#fff" d="M613 24c-304 0-509-231-509-576 0-350 205-580 509-580 216 0 392 114 453 309l-173 49c-33-115-133-197-280-197-223 0-326 196-326 419 0 220 103 415 326 415 150 0 252-85 285-206l172 49C1010-95 832 24 613 24" id="am"/><path fill="#fff" d="M338-670V0H158v-1490h180v566c73-149 190-208 336-208 226 0 379 139 379 422V0H872v-695c0-172-96-275-252-275-161 0-282 109-282 300" id="an"/><path fill="#fff" d="M158 0v-1118h180V0H158zm91-1301c-68 0-125-53-125-119s57-119 125-119c69 0 126 53 126 119s-57 119-126 119" id="ao"/><path fill="#fff" d="M598-1118v154H368v674c0 100 37 144 132 144 23 0 62-6 92-12L629-6c-37 13-88 20-134 20-193 0-307-107-307-290v-688H20v-154h168v-266h180v266h230" id="ap"/><path fill="#fff" d="M628 24c-324 0-524-230-524-574 0-343 198-582 503-582 237 0 487 146 487 559v75H286c9 234 145 362 343 362 132 0 231-58 273-172l174 48C1024-91 857 24 628 24zM287-650h624c-17-190-120-322-304-322-192 0-309 151-320 322" id="aq"/><path fill="#fff" d="M537 14c-226 0-379-139-379-422v-710h180v695c0 172 97 275 253 275 160 0 281-109 281-300v-670h181V0H879v-209C806-46 684 14 537 14" id="ar"/><g id="a"><use transform="matrix(0.008173828125000001,0,0,0.008173828125000001,0,0)" xlink:href="#ak"/><use transform="matrix(0.008173828125000001,0,0,0.008173828125000001,11.549619140625001,0)" xlink:href="#al"/><use transform="matrix(0.008173828125000001,0,0,0.008173828125000001,17.57373046875,0)" xlink:href="#am"/><use transform="matrix(0.008173828125000001,0,0,0.008173828125000001,27.137109375000005,0)" xlink:href="#an"/><use transform="matrix(0.008173828125000001,0,0,0.008173828125000001,37.035615234375,0)" xlink:href="#ao"/><use transform="matrix(0.008173828125000001,0,0,0.008173828125000001,41.089833984375005,0)" xlink:href="#ap"/><use transform="matrix(0.008173828125000001,0,0,0.008173828125000001,46.402822265625005,0)" xlink:href="#aq"/><use transform="matrix(0.008173828125000001,0,0,0.008173828125000001,56.162373046875004,0)" xlink:href="#am"/><use transform="matrix(0.008173828125000001,0,0,0.008173828125000001,65.72575195312501,0)" xlink:href="#ap"/><use transform="matrix(0.008173828125000001,0,0,0.008173828125000001,71.202216796875,0)" xlink:href="#ar"/><use transform="matrix(0.008173828125000001,0,0,0.008173828125000001,81.10072265625001,0)" xlink:href="#al"/><use transform="matrix(0.008173828125000001,0,0,0.008173828125000001,87.12483398437502,0)" xlink:href="#aq"/></g><path fill="#fff" d="M611 442c-248 0-391-105-460-228l146-94c47 65 117 165 314 165 178 0 307-82 307-266v-224h-17C863-141 792-18 576-18c-268 0-472-195-472-546 0-346 197-568 476-568 216 0 288 133 326 193h17v-179h175V29c0 289-215 413-487 413zm-5-620c203 0 314-146 314-390 0-237-108-403-314-403-213 0-319 180-319 403 0 230 109 390 319 390" id="as"/><path fill="#fff" d="M628 24c-324 0-524-230-524-574 0-343 198-582 503-582 237 0 487 146 487 559v75H286c9 234 145 362 343 362 132 0 231-58 273-172l174 48C1024-91 857 24 628 24zM287-650h624c-17-190-120-322-304-322-192 0-309 151-320 322zm237-614l140-294h201l-194 294H524" id="at"/><path fill="#fff" d="M338-670V0H158v-1118h173l1 207c72-158 192-221 342-221 226 0 378 139 378 422V0H872v-695c0-172-96-275-252-275-161 0-282 109-282 300" id="au"/><path fill="#fff" d="M471 26C259 26 90-98 90-318c0-256 228-303 435-329 202-27 287-16 287-108 0-139-79-219-234-219-161 0-248 86-283 164l-173-57c86-203 278-265 451-265 150 0 419 46 419 395V0H815v-152h-12C765-73 660 26 471 26zm31-159c199 0 310-134 310-271v-155c-30 35-226 55-295 64-131 17-246 59-246 186 0 116 97 176 231 176" id="av"/><path fill="#fff" d="M338-1490V0H158v-1490h180" id="aw"/><g id="b"><use transform="matrix(0.008173828125000001,0,0,0.008173828125000001,0,0)" xlink:href="#as"/><use transform="matrix(0.008173828125000001,0,0,0.008173828125000001,10.266328125000001,0)" xlink:href="#at"/><use transform="matrix(0.008173828125000001,0,0,0.008173828125000001,20.02587890625,0)" xlink:href="#au"/><use transform="matrix(0.008173828125000001,0,0,0.008173828125000001,29.9162109375,0)" xlink:href="#at"/><use transform="matrix(0.008173828125000001,0,0,0.008173828125000001,39.67576171875,0)" xlink:href="#al"/><use transform="matrix(0.008173828125000001,0,0,0.008173828125000001,45.977783203125,0)" xlink:href="#av"/><use transform="matrix(0.008173828125000001,0,0,0.008173828125000001,55.377685546875,0)" xlink:href="#aw"/><use transform="matrix(0.008173828125000001,0,0,0.008173828125000001,59.431904296875004,0)" xlink:href="#aq"/></g><path d="M783 20c-382 0-661-292-661-764 0-473 279-766 661-766 302 0 548 182 601 489h-190c-42-204-217-313-411-313-268 0-476 208-476 590 0 381 209 588 476 588 195 0 369-110 411-313h190c-52 303-296 489-601 489" id="ax"/><path d="M613 24c-304 0-509-231-509-576 0-350 205-580 509-580 305 0 511 230 511 580 0 345-206 576-511 576zm0-161c226 0 329-195 329-415 0-222-103-419-329-419-223 0-326 196-326 419 0 220 103 415 326 415" id="ay"/><path d="M537 14c-226 0-379-139-379-422v-710h180v695c0 172 97 275 253 275 160 0 281-109 281-300v-670h181V0H879v-209C806-46 684 14 537 14" id="az"/><path d="M613 24c-304 0-509-231-509-576 0-350 205-580 509-580 216 0 392 114 453 309l-173 49c-33-115-133-197-280-197-223 0-326 196-326 419 0 220 103 415 326 415 150 0 252-85 285-206l172 49C1010-95 832 24 613 24" id="aA"/><path d="M338-670V0H158v-1490h180v566c73-149 190-208 336-208 226 0 379 139 379 422V0H872v-695c0-172-96-275-252-275-161 0-282 109-282 300" id="aB"/><path d="M628 24c-324 0-524-230-524-574 0-343 198-582 503-582 237 0 487 146 487 559v75H286c9 234 145 362 343 362 132 0 231-58 273-172l174 48C1024-91 857 24 628 24zM287-650h624c-17-190-120-322-304-322-192 0-309 151-320 322" id="aC"/><g id="c"><use transform="matrix(0.010850694444444444,0,0,0.010850694444444444,0,0)" xlink:href="#ax"/><use transform="matrix(0.010850694444444444,0,0,0.010850694444444444,16.23263888888889,0)" xlink:href="#ay"/><use transform="matrix(0.010850694444444444,0,0,0.010850694444444444,29.557291666666664,0)" xlink:href="#az"/><use transform="matrix(0.010850694444444444,0,0,0.010850694444444444,42.697482638888886,0)" xlink:href="#aA"/><use transform="matrix(0.010850694444444444,0,0,0.010850694444444444,55.392795138888886,0)" xlink:href="#aB"/><use transform="matrix(0.010850694444444444,0,0,0.010850694444444444,68.53298611111111,0)" xlink:href="#aC"/></g><path d="M653-1490V0H466v-1314h-10L96-1047v-204l324-239h233" id="aD"/><use transform="matrix(0.010850694444444444,0,0,0.010850694444444444,0,0)" xlink:href="#aD" id="d"/><path d="M295 13c-75 0-135-60-135-135s60-135 135-135 135 60 135 135S370 13 295 13zm0-809c-75 0-135-60-135-135s60-135 135-135 135 60 135 135-60 135-135 135" id="aE"/><use transform="matrix(0.010850694444444444,0,0,0.010850694444444444,0,0)" xlink:href="#aE" id="e"/><path d="M370-1490V0H180v-1490h190" id="aF"/><path d="M98-1322v-168h1126v168H757V0H567v-1322H98" id="aG"/><g id="f"><use transform="matrix(0.010850694444444444,0,0,0.010850694444444444,0,0)" xlink:href="#aF"/><use transform="matrix(0.010850694444444444,0,0,0.010850694444444444,5.967881944444445,0)" xlink:href="#ay"/><use transform="matrix(0.010850694444444444,0,0,0.010850694444444444,17.55642361111111,0)" xlink:href="#aG"/></g><path d="M218-607c0-325 108-727 258-974h175c-155 315-250 682-250 974 0 265 78 531 250 886H476C306-10 218-315 218-607" id="aH"/><path d="M180 0v-1490h510c348 0 508 209 508 474 0 266-160 477-507 477H370V0H180zm190-706h312c236 0 327-133 327-310 0-176-91-307-329-307H370v617" id="aI"/><path d="M140 405l46-156c120 36 205 19 263-150l32-93L54-1118h197c107 313 237 620 324 950 87-331 219-637 326-950h196L606 167c-68 178-176 259-334 259-64 0-113-12-132-21" id="aJ"/><path d="M538 24C308 24 148-78 108-271l171-41c32 123 123 178 257 178 156 0 256-77 256-169 0-77-54-128-164-154l-186-44c-203-48-300-148-300-305 0-192 176-326 414-326 230 0 351 112 402 269l-163 42c-31-80-94-158-238-158-133 0-233 69-233 162 0 83 57 129 188 160l169 40c203 48 298 149 298 302 0 196-179 339-441 339" id="aK"/><path d="M158 0v-1118h180V0H158zm91-1301c-68 0-125-53-125-119s57-119 125-119c69 0 126 53 126 119s-57 119-126 119" id="aL"/><path d="M1096 418H916v-591h-14C865-111 790 24 577 24c-279 0-473-224-473-580 0-354 195-576 474-576 218 0 287 134 324 193h20v-179h174V418zM604-137c203 0 314-172 314-421 0-247-108-413-314-413-212 0-317 181-317 413 0 235 108 421 317 421" id="aM"/><path d="M96 279C273-86 346-350 346-607c0-292-95-659-250-974h175c150 246 258 650 258 974 0 297-91 602-258 886H96" id="aN"/><g id="g"><use transform="matrix(0.010850694444444444,0,0,0.010850694444444444,0,0)" xlink:href="#aH"/><use transform="matrix(0.010850694444444444,0,0,0.010850694444444444,8.10546875,0)" xlink:href="#aI"/><use transform="matrix(0.010850694444444444,0,0,0.010850694444444444,22.298177083333332,0)" xlink:href="#aB"/><use transform="matrix(0.010850694444444444,0,0,0.010850694444444444,35.11284722222222,0)" xlink:href="#aJ"/><use transform="matrix(0.010850694444444444,0,0,0.010850694444444444,47.60199652777778,0)" xlink:href="#aK"/><use transform="matrix(0.010850694444444444,0,0,0.010850694444444444,59.33159722222222,0)" xlink:href="#aL"/><use transform="matrix(0.010850694444444444,0,0,0.010850694444444444,64.71354166666667,0)" xlink:href="#aM"/><use transform="matrix(0.010850694444444444,0,0,0.010850694444444444,78.3203125,0)" xlink:href="#az"/><use transform="matrix(0.010850694444444444,0,0,0.010850694444444444,91.46050347222221,0)" xlink:href="#aC"/><use transform="matrix(0.010850694444444444,0,0,0.010850694444444444,104.16666666666666,0)" xlink:href="#aN"/></g><path d="M154 0v-137l495-537c165-179 249-281 249-418 0-156-121-253-280-253-170 0-278 110-278 278H158c0-264 200-443 465-443 266 0 455 183 455 416 0 161-73 288-336 568L416-179v12h687V0H154" id="aO"/><use transform="matrix(0.010850694444444444,0,0,0.010850694444444444,0,0)" xlink:href="#aO" id="h"/><path d="M158 0v-1118h175l1 205c55-151 181-225 313-225 147 0 245 90 285 228 53-141 190-228 352-228 194 0 352 125 352 384V0h-181v-749c0-161-105-225-225-225-151 0-243 103-243 244V0H807v-767c0-124-93-207-219-207-131 0-250 92-250 270V0H158" id="aP"/><path d="M338-670V0H158v-1118h173l1 207c72-158 192-221 342-221 226 0 378 139 378 422V0H872v-695c0-172-96-275-252-275-161 0-282 109-282 300" id="aQ"/><path d="M471 26C259 26 90-98 90-318c0-256 228-303 435-329 202-27 287-16 287-108 0-139-79-219-234-219-161 0-248 86-283 164l-173-57c86-203 278-265 451-265 150 0 419 46 419 395V0H815v-152h-12C765-73 660 26 471 26zm31-159c199 0 310-134 310-271v-155c-30 35-226 55-295 64-131 17-246 59-246 186 0 116 97 176 231 176" id="aR"/><path d="M598-1118v154H368v674c0 100 37 144 132 144 23 0 62-6 92-12L629-6c-37 13-88 20-134 20-193 0-307-107-307-290v-688H20v-154h168v-266h180v266h230" id="aS"/><g id="i"><use transform="matrix(0.010850694444444444,0,0,0.010850694444444444,0,0)" xlink:href="#aA"/><use transform="matrix(0.010850694444444444,0,0,0.010850694444444444,12.6953125,0)" xlink:href="#ay"/><use transform="matrix(0.010850694444444444,0,0,0.010850694444444444,26.01996527777778,0)" xlink:href="#aP"/><use transform="matrix(0.010850694444444444,0,0,0.010850694444444444,45.48611111111111,0)" xlink:href="#aP"/><use transform="matrix(0.010850694444444444,0,0,0.010850694444444444,64.95225694444444,0)" xlink:href="#az"/><use transform="matrix(0.010850694444444444,0,0,0.010850694444444444,78.09244791666666,0)" xlink:href="#aQ"/><use transform="matrix(0.010850694444444444,0,0,0.010850694444444444,91.22178819444441,0)" xlink:href="#aL"/><use transform="matrix(0.010850694444444444,0,0,0.010850694444444444,96.60373263888887,0)" xlink:href="#aA"/><use transform="matrix(0.010850694444444444,0,0,0.010850694444444444,109.51605902777776,0)" xlink:href="#aR"/><use transform="matrix(0.010850694444444444,0,0,0.010850694444444444,121.99435763888887,0)" xlink:href="#aS"/><use transform="matrix(0.010850694444444444,0,0,0.010850694444444444,129.26432291666666,0)" xlink:href="#aL"/><use transform="matrix(0.010850694444444444,0,0,0.010850694444444444,134.64626736111111,0)" xlink:href="#ay"/><use transform="matrix(0.010850694444444444,0,0,0.010850694444444444,147.97092013888889,0)" xlink:href="#aQ"/></g><path d="M635 20c-292 0-500-160-510-396h192c11 142 145 229 315 229 187 0 323-105 323-260 0-161-125-274-346-274H488v-165h121c174 0 294-100 294-254 0-148-104-245-266-245-152 0-291 85-297 230H157c8-234 222-395 484-395 278 0 448 188 448 400 0 168-95 291-247 336v12c190 31 301 169 301 357 0 244-216 425-508 425" id="aT"/><use transform="matrix(0.010850694444444444,0,0,0.010850694444444444,0,0)" xlink:href="#aT" id="j"/><path d="M677 24c-213 0-288-135-325-197h-20V0H158v-1490h180v551h14c37-59 106-193 324-193 279 0 474 222 474 576 0 356-194 580-473 580zm-27-161c209 0 317-186 317-421 0-232-105-413-317-413-206 0-314 166-314 413 0 249 111 421 314 421" id="aU"/><path d="M158 0v-1490h180v865h22l478-493h223L593-638 1096 0H865L456-523 338-412V0H158" id="aV"/><path d="M577 24c-279 0-473-224-473-580 0-354 195-576 474-576 218 0 287 134 324 193h14v-551h180V0H922v-173h-20C865-111 790 24 577 24zm27-161c203 0 314-172 314-421 0-247-108-413-314-413-212 0-317 181-317 413 0 235 108 421 317 421" id="aW"/><g id="k"><use transform="matrix(0.010850694444444444,0,0,0.010850694444444444,0,0)" xlink:href="#aU"/><use transform="matrix(0.010850694444444444,0,0,0.010850694444444444,13.823784722222221,0)" xlink:href="#aR"/><use transform="matrix(0.010850694444444444,0,0,0.010850694444444444,26.302083333333332,0)" xlink:href="#aA"/><use transform="matrix(0.010850694444444444,0,0,0.010850694444444444,38.99739583333333,0)" xlink:href="#aV"/><use transform="matrix(0.010850694444444444,0,0,0.010850694444444444,50.69444444444444,0)" xlink:href="#aC"/><use transform="matrix(0.010850694444444444,0,0,0.010850694444444444,63.65017361111111,0)" xlink:href="#aQ"/><use transform="matrix(0.010850694444444444,0,0,0.010850694444444444,76.77951388888889,0)" xlink:href="#aW"/></g><path d="M120-303v-155l652-1032h231v1020h202v167h-202V0H821v-303H120zm702-167v-782h-12L323-482v12h499" id="aX"/><use transform="matrix(0.010850694444444444,0,0,0.010850694444444444,0,0)" xlink:href="#aX" id="l"/><path d="M678-1118v154H420V0H240v-964H20v-154h220v-149c0-194 155-293 318-293 85 0 141 18 168 30l-50 154c-19-6-47-17-97-17-111 0-159 58-159 166v109h258" id="aY"/><path d="M158 0v-1118h174v172h12c41-113 157-188 290-188 26 0 70 2 91 3v181c-11-2-60-10-108-10-161 0-279 109-279 260V0H158" id="aZ"/><g id="m"><use transform="matrix(0.010850694444444444,0,0,0.010850694444444444,0,0)" xlink:href="#aY"/><use transform="matrix(0.010850694444444444,0,0,0.010850694444444444,8.22482638888889,0)" xlink:href="#aZ"/><use transform="matrix(0.010850694444444444,0,0,0.010850694444444444,16.221788194444443,0)" xlink:href="#ay"/><use transform="matrix(0.010850694444444444,0,0,0.010850694444444444,29.54644097222222,0)" xlink:href="#aQ"/><use transform="matrix(0.010850694444444444,0,0,0.010850694444444444,42.67578125,0)" xlink:href="#aS"/><use transform="matrix(0.010850694444444444,0,0,0.010850694444444444,49.7287326388889,0)" xlink:href="#aC"/><use transform="matrix(0.010850694444444444,0,0,0.010850694444444444,62.68446180555555,0)" xlink:href="#aQ"/><use transform="matrix(0.010850694444444444,0,0,0.010850694444444444,75.81380208333333,0)" xlink:href="#aW"/></g><path d="M158 418v-1536h174v179h20c37-59 106-193 324-193 279 0 474 222 474 576 0 356-194 580-473 580-213 0-288-135-325-197h-14v591H158zm492-555c209 0 317-186 317-421 0-232-105-413-317-413-206 0-314 166-314 413 0 249 111 421 314 421" id="ba"/><g id="n"><use transform="matrix(0.010850694444444444,0,0,0.010850694444444444,0,0)" xlink:href="#aA"/><use transform="matrix(0.010850694444444444,0,0,0.010850694444444444,12.91232638888889,0)" xlink:href="#aR"/><use transform="matrix(0.010850694444444444,0,0,0.010850694444444444,25.390625,0)" xlink:href="#ba"/><use transform="matrix(0.010850694444444444,0,0,0.010850694444444444,38.99739583333333,0)" xlink:href="#aS"/><use transform="matrix(0.010850694444444444,0,0,0.010850694444444444,46.05034722222222,0)" xlink:href="#aC"/><use transform="matrix(0.010850694444444444,0,0,0.010850694444444444,59.006076388888886,0)" xlink:href="#az"/><use transform="matrix(0.010850694444444444,0,0,0.010850694444444444,72.14626736111111,0)" xlink:href="#aZ"/><use transform="matrix(0.010850694444444444,0,0,0.010850694444444444,80.51215277777779,0)" xlink:href="#aK"/></g><path d="M628 24c-324 0-524-230-524-574 0-343 198-582 503-582 237 0 487 146 487 559v75H286c9 234 145 362 343 362 132 0 231-58 273-172l174 48C1024-91 857 24 628 24zM287-650h624c-17-190-120-322-304-322-192 0-309 151-320 322zm237-614l140-294h201l-194 294H524" id="bb"/><g id="o"><use transform="matrix(0.010850694444444444,0,0,0.010850694444444444,0,0)" xlink:href="#aH"/><use transform="matrix(0.010850694444444444,0,0,0.010850694444444444,8.10546875,0)" xlink:href="#aB"/><use transform="matrix(0.010850694444444444,0,0,0.010850694444444444,21.24565972222222,0)" xlink:href="#az"/><use transform="matrix(0.010850694444444444,0,0,0.010850694444444444,34.38585069444444,0)" xlink:href="#aP"/><use transform="matrix(0.010850694444444444,0,0,0.010850694444444444,53.85199652777778,0)" xlink:href="#aL"/><use transform="matrix(0.010850694444444444,0,0,0.010850694444444444,59.23394097222221,0)" xlink:href="#aW"/><use transform="matrix(0.010850694444444444,0,0,0.010850694444444444,72.84071180555554,0)" xlink:href="#aL"/><use transform="matrix(0.010850694444444444,0,0,0.010850694444444444,78.22265624999999,0)" xlink:href="#aS"/><use transform="matrix(0.010850694444444444,0,0,0.010850694444444444,85.27560763888887,0)" xlink:href="#bb"/></g><path d="M338-1490V0H158v-1490h180" id="bc"/><path d="M128 359l88-567h206L266 359H128" id="bd"/><g id="p"><use transform="matrix(0.010850694444444444,0,0,0.010850694444444444,0,0)" xlink:href="#aK"/><use transform="matrix(0.010850694444444444,0,0,0.010850694444444444,11.729600694444445,0)" xlink:href="#ay"/><use transform="matrix(0.010850694444444444,0,0,0.010850694444444444,25.05425347222222,0)" xlink:href="#bc"/><use transform="matrix(0.010850694444444444,0,0,0.010850694444444444,30.436197916666664,0)" xlink:href="#bd"/></g><path d="M468-829c-186 0-338-150-338-335 0-186 152-338 338-338 184 0 335 152 335 338 0 185-151 335-335 335zm0-150c102 0 185-83 185-185 0-103-83-187-185-187-104 0-187 84-187 187 0 102 83 185 187 185" id="be"/><path d="M692-1560L212 224H46l480-1784h166" id="bf"/><g id="q"><use transform="matrix(0.010850694444444444,0,0,0.010850694444444444,0,0)" xlink:href="#aG"/><use transform="matrix(0.010850694444444444,0,0,0.010850694444444444,14.344618055555555,0)" xlink:href="#be"/><use transform="matrix(0.010850694444444444,0,0,0.010850694444444444,24.46831597222222,0)" xlink:href="#bf"/><use transform="matrix(0.010850694444444444,0,0,0.010850694444444444,32.47612847222222,0)" xlink:href="#aB"/><use transform="matrix(0.010850694444444444,0,0,0.010850694444444444,45.61631944444444,0)" xlink:href="#az"/><use transform="matrix(0.010850694444444444,0,0,0.010850694444444444,58.756510416666664,0)" xlink:href="#aP"/><use transform="matrix(0.010850694444444444,0,0,0.010850694444444444,78.22265625,0)" xlink:href="#aL"/><use transform="matrix(0.010850694444444444,0,0,0.010850694444444444,83.60460069444444,0)" xlink:href="#aW"/><use transform="matrix(0.010850694444444444,0,0,0.010850694444444444,97.21137152777777,0)" xlink:href="#aL"/><use transform="matrix(0.010850694444444444,0,0,0.010850694444444444,102.59331597222221,0)" xlink:href="#aS"/><use transform="matrix(0.010850694444444444,0,0,0.010850694444444444,109.64626736111111,0)" xlink:href="#bb"/><use transform="matrix(0.010850694444444444,0,0,0.010850694444444444,122.60199652777777,0)" xlink:href="#bd"/></g><path d="M784 20c-382 0-662-292-662-764 0-473 280-766 662-766s660 293 660 766c0 472-278 764-660 764zm0-176c266 0 475-207 475-588 0-383-209-590-475-590-268 0-477 208-477 590 0 380 209 588 477 588" id="bg"/><g id="r"><use transform="matrix(0.010850694444444444,0,0,0.010850694444444444,0,0)" xlink:href="#ax"/><use transform="matrix(0.010850694444444444,0,0,0.010850694444444444,16.23263888888889,0)" xlink:href="#bg"/><use transform="matrix(0.006510416666666667,0,0,0.006510416666666667,33.224826388888886,0)" xlink:href="#aO"/><use transform="matrix(0.010850694444444444,0,0,0.010850694444444444,41.35633680555556,0)" xlink:href="#bd"/></g><path d="M481 0L54-1118h197c107 314 236 620 325 951 87-331 217-637 324-951h197L670 0H481" id="bh"/><g id="s"><use transform="matrix(0.010850694444444444,0,0,0.010850694444444444,0,0)" xlink:href="#aQ"/><use transform="matrix(0.010850694444444444,0,0,0.010850694444444444,13.129340277777777,0)" xlink:href="#aL"/><use transform="matrix(0.010850694444444444,0,0,0.010850694444444444,18.51128472222222,0)" xlink:href="#bh"/><use transform="matrix(0.010850694444444444,0,0,0.010850694444444444,30.56640625,0)" xlink:href="#aC"/><use transform="matrix(0.010850694444444444,0,0,0.010850694444444444,43.73914930555556,0)" xlink:href="#aR"/><use transform="matrix(0.010850694444444444,0,0,0.010850694444444444,56.21744791666667,0)" xlink:href="#az"/></g><path d="M232-923l-22-567h194l-22 567H232" id="bi"/><g id="t"><use transform="matrix(0.010850694444444444,0,0,0.010850694444444444,0,0)" xlink:href="#aW"/><use transform="matrix(0.010850694444444444,0,0,0.010850694444444444,13.606770833333332,0)" xlink:href="#bi"/><use transform="matrix(0.010850694444444444,0,0,0.010850694444444444,19.943576388888886,0)" xlink:href="#aC"/><use transform="matrix(0.010850694444444444,0,0,0.010850694444444444,33.11631944444444,0)" xlink:href="#aR"/><use transform="matrix(0.010850694444444444,0,0,0.010850694444444444,45.59461805555556,0)" xlink:href="#az"/><use transform="matrix(0.010850694444444444,0,0,0.010850694444444444,58.73480902777778,0)" xlink:href="#bd"/></g><g id="u"><use transform="matrix(0.010850694444444444,0,0,0.010850694444444444,0,0)" xlink:href="#bh"/><use transform="matrix(0.010850694444444444,0,0,0.010850694444444444,12.055121527777777,0)" xlink:href="#aC"/><use transform="matrix(0.010850694444444444,0,0,0.010850694444444444,25.010850694444443,0)" xlink:href="#aQ"/><use transform="matrix(0.010850694444444444,0,0,0.010850694444444444,38.14019097222222,0)" xlink:href="#aS"/><use transform="matrix(0.010850694444444444,0,0,0.010850694444444444,45.41015625,0)" xlink:href="#aL"/><use transform="matrix(0.010850694444444444,0,0,0.010850694444444444,50.79210069444444,0)" xlink:href="#bc"/><use transform="matrix(0.010850694444444444,0,0,0.010850694444444444,56.174045138888886,0)" xlink:href="#aR"/><use transform="matrix(0.010850694444444444,0,0,0.010850694444444444,68.65234375,0)" xlink:href="#aS"/><use transform="matrix(0.010850694444444444,0,0,0.010850694444444444,75.92230902777777,0)" xlink:href="#aL"/><use transform="matrix(0.010850694444444444,0,0,0.010850694444444444,81.30425347222221,0)" xlink:href="#ay"/><use transform="matrix(0.010850694444444444,0,0,0.010850694444444444,94.62890624999997,0)" xlink:href="#aQ"/><use transform="matrix(0.010850694444444444,0,0,0.010850694444444444,107.75824652777776,0)" xlink:href="#bd"/></g><path d="M611 442c-248 0-391-105-460-228l146-94c47 65 117 165 314 165 178 0 307-82 307-266v-224h-17C863-141 792-18 576-18c-268 0-472-195-472-546 0-346 197-568 476-568 216 0 288 133 326 193h17v-179h175V29c0 289-215 413-487 413zm-5-620c203 0 314-146 314-390 0-237-108-403-314-403-213 0-319 180-319 403 0 230 109 390 319 390" id="bj"/><g id="v"><use transform="matrix(0.010850694444444444,0,0,0.010850694444444444,0,0)" xlink:href="#aR"/><use transform="matrix(0.010850694444444444,0,0,0.010850694444444444,12.47829861111111,0)" xlink:href="#aZ"/><use transform="matrix(0.010850694444444444,0,0,0.010850694444444444,21.19140625,0)" xlink:href="#aZ"/><use transform="matrix(0.010850694444444444,0,0,0.010850694444444444,29.18836805555556,0)" xlink:href="#ay"/><use transform="matrix(0.010850694444444444,0,0,0.010850694444444444,42.513020833333336,0)" xlink:href="#aK"/><use transform="matrix(0.010850694444444444,0,0,0.010850694444444444,54.24262152777778,0)" xlink:href="#aR"/><use transform="matrix(0.010850694444444444,0,0,0.010850694444444444,66.72092013888889,0)" xlink:href="#bj"/><use transform="matrix(0.010850694444444444,0,0,0.010850694444444444,80.34939236111111,0)" xlink:href="#aC"/></g><g id="w"><use transform="matrix(0.010850694444444444,0,0,0.010850694444444444,0,0)" xlink:href="#aC"/><use transform="matrix(0.010850694444444444,0,0,0.010850694444444444,12.955729166666666,0)" xlink:href="#aS"/><use transform="matrix(0.010850694444444444,0,0,0.010850694444444444,20.008680555555554,0)" xlink:href="#bb"/><use transform="matrix(0.010850694444444444,0,0,0.010850694444444444,32.96440972222222,0)" xlink:href="#aA"/><use transform="matrix(0.010850694444444444,0,0,0.010850694444444444,45.65972222222222,0)" xlink:href="#bc"/><use transform="matrix(0.010850694444444444,0,0,0.010850694444444444,51.041666666666664,0)" xlink:href="#aR"/><use transform="matrix(0.010850694444444444,0,0,0.010850694444444444,63.51996527777778,0)" xlink:href="#aL"/><use transform="matrix(0.010850694444444444,0,0,0.010850694444444444,68.90190972222221,0)" xlink:href="#aZ"/><use transform="matrix(0.010850694444444444,0,0,0.010850694444444444,77.26779513888889,0)" xlink:href="#aR"/><use transform="matrix(0.010850694444444444,0,0,0.010850694444444444,89.74609375,0)" xlink:href="#bj"/><use transform="matrix(0.010850694444444444,0,0,0.010850694444444444,103.37456597222224,0)" xlink:href="#aC"/><use transform="matrix(0.010850694444444444,0,0,0.010850694444444444,116.08072916666666,0)" xlink:href="#aN"/></g><path d="M180 0v-1490h908v168H370v486h669v168H370v500h727V0H180" id="bk"/><path d="M657 26c-323 0-524-166-541-416h195c15 169 171 246 346 246 202 0 356-106 356-265 5-203-294-238-475-293-239-73-380-191-380-389 0-252 224-419 512-419 294 0 499 171 508 396H992c-17-145-151-228-328-228-193 0-321 102-321 242 0 156 175 211 284 241l149 41c160 44 422 134 422 412 0 244-197 432-541 432" id="bl"/><g id="x"><use transform="matrix(0.010850694444444444,0,0,0.010850694444444444,0,0)" xlink:href="#bk"/><use transform="matrix(0.010850694444444444,0,0,0.010850694444444444,13.35720486111111,0)" xlink:href="#bl"/><use transform="matrix(0.010850694444444444,0,0,0.010850694444444444,27.61501736111111,0)" xlink:href="#aI"/><use transform="matrix(0.010850694444444444,0,0,0.010850694444444444,41.80772569444444,0)" xlink:href="#aT"/><use transform="matrix(0.010850694444444444,0,0,0.010850694444444444,55.533854166666664,0)" xlink:href="#aO"/></g><use transform="matrix(0.010850694444444444,0,0,0.010850694444444444,0,0)" xlink:href="#bf" id="y"/><path d="M52 0l541-1490h220L1361 0h-200l-149-416H398L254 0H52zm404-582h497c-103-290-145-390-251-756-108 377-145 460-246 756" id="bm"/><g id="z"><use transform="matrix(0.010850694444444444,0,0,0.010850694444444444,0,0)" xlink:href="#bm"/><use transform="matrix(0.010850694444444444,0,0,0.010850694444444444,15.33203125,0)" xlink:href="#aZ"/><use transform="matrix(0.010850694444444444,0,0,0.010850694444444444,23.328993055555554,0)" xlink:href="#aW"/><use transform="matrix(0.010850694444444444,0,0,0.010850694444444444,36.935763888888886,0)" xlink:href="#az"/><use transform="matrix(0.010850694444444444,0,0,0.010850694444444444,50.07595486111111,0)" xlink:href="#aL"/><use transform="matrix(0.010850694444444444,0,0,0.010850694444444444,55.45789930555556,0)" xlink:href="#aQ"/><use transform="matrix(0.010850694444444444,0,0,0.010850694444444444,68.58723958333333,0)" xlink:href="#ay"/></g><path d="M593-100v-404H195v-159h398v-403h169v403h398v159H762v404H593" id="bn"/><use transform="matrix(0.010850694444444444,0,0,0.010850694444444444,0,0)" xlink:href="#bn" id="A"/><path d="M633 20c-303 0-511-173-511-416 0-188 124-348 291-378v-8c-145-37-237-174-237-332 0-227 192-396 457-396 261 0 456 169 456 396 0 158-94 295-235 332v8c162 30 291 190 291 378 0 243-212 416-512 416zm0-165c197 0 322-103 322-261 0-165-138-283-322-283-188 0-324 118-324 283 0 158 123 261 324 261zm0-703c157 0 272-101 272-252 0-149-110-246-272-246-165 0-273 97-273 246 0 151 112 252 273 252" id="bo"/><path d="M646 20c-249 0-524-159-524-708 0-524 209-822 547-822 250 0 431 161 467 395H950c-33-129-126-227-281-227-229 0-367 208-367 566h12c80-124 212-198 367-198 255 0 467 205 467 493 0 278-198 501-502 501zm0-167c179 0 318-148 318-334 0-182-133-328-313-328-181 0-322 156-322 330 0 176 134 332 317 332" id="bp"/><g id="B"><use transform="matrix(0.010850694444444444,0,0,0.010850694444444444,0,0)" xlink:href="#bk"/><use transform="matrix(0.010850694444444444,0,0,0.010850694444444444,13.35720486111111,0)" xlink:href="#bl"/><use transform="matrix(0.010850694444444444,0,0,0.010850694444444444,27.61501736111111,0)" xlink:href="#aI"/><use transform="matrix(0.010850694444444444,0,0,0.010850694444444444,41.80772569444444,0)" xlink:href="#bo"/><use transform="matrix(0.010850694444444444,0,0,0.010850694444444444,55.55555555555556,0)" xlink:href="#aO"/><use transform="matrix(0.010850694444444444,0,0,0.010850694444444444,69.10807291666667,0)" xlink:href="#bp"/><use transform="matrix(0.010850694444444444,0,0,0.010850694444444444,82.88845486111111,0)" xlink:href="#bp"/></g><g id="C"><use transform="matrix(0.010850694444444444,0,0,0.010850694444444444,0,0)" xlink:href="#aR"/><use transform="matrix(0.010850694444444444,0,0,0.010850694444444444,12.47829861111111,0)" xlink:href="#aA"/><use transform="matrix(0.010850694444444444,0,0,0.010850694444444444,25.17361111111111,0)" xlink:href="#aS"/><use transform="matrix(0.010850694444444444,0,0,0.010850694444444444,32.443576388888886,0)" xlink:href="#aL"/><use transform="matrix(0.010850694444444444,0,0,0.010850694444444444,37.82552083333333,0)" xlink:href="#ay"/><use transform="matrix(0.010850694444444444,0,0,0.010850694444444444,51.15017361111111,0)" xlink:href="#aQ"/><use transform="matrix(0.010850694444444444,0,0,0.010850694444444444,64.27951388888889,0)" xlink:href="#aQ"/><use transform="matrix(0.010850694444444444,0,0,0.010850694444444444,77.40885416666666,0)" xlink:href="#aC"/><use transform="matrix(0.010850694444444444,0,0,0.010850694444444444,90.36458333333333,0)" xlink:href="#az"/><use transform="matrix(0.010850694444444444,0,0,0.010850694444444444,103.50477430555556,0)" xlink:href="#aZ"/><use transform="matrix(0.010850694444444444,0,0,0.010850694444444444,111.87065972222221,0)" xlink:href="#aK"/></g><path d="M180 0v-1490h190v644h782v-644h190V0h-190v-678H370V0H180" id="bq"/><g id="D"><use transform="matrix(0.010850694444444444,0,0,0.010850694444444444,0,0)" xlink:href="#bq"/><use transform="matrix(0.010850694444444444,0,0,0.010850694444444444,16.514756944444443,0)" xlink:href="#aG"/><use transform="matrix(0.010850694444444444,0,0,0.010850694444444444,30.859375,0)" xlink:href="#aG"/><use transform="matrix(0.010850694444444444,0,0,0.010850694444444444,45.20399305555556,0)" xlink:href="#aI"/></g><path d="M458 0L52-1490h194c108 439 233 855 324 1313 92-459 221-873 331-1313h216c110 438 234 854 330 1307 92-455 216-869 323-1307h196L1558 0h-221l-256-944c-26-95-50-200-73-331-22 122-44 223-73 331L680 0H458" id="br"/><g id="E"><use transform="matrix(0.010850694444444444,0,0,0.010850694444444444,0,0)" xlink:href="#br"/><use transform="matrix(0.010850694444444444,0,0,0.010850694444444444,20.768229166666668,0)" xlink:href="#aC"/><use transform="matrix(0.010850694444444444,0,0,0.010850694444444444,33.723958333333336,0)" xlink:href="#aU"/><use transform="matrix(0.010850694444444444,0,0,0.010850694444444444,47.33072916666667,0)" xlink:href="#bl"/><use transform="matrix(0.010850694444444444,0,0,0.010850694444444444,61.58854166666667,0)" xlink:href="#ay"/><use transform="matrix(0.010850694444444444,0,0,0.010850694444444444,74.91319444444444,0)" xlink:href="#aA"/><use transform="matrix(0.010850694444444444,0,0,0.010850694444444444,87.60850694444444,0)" xlink:href="#aV"/><use transform="matrix(0.010850694444444444,0,0,0.010850694444444444,99.30555555555556,0)" xlink:href="#aC"/><use transform="matrix(0.010850694444444444,0,0,0.010850694444444444,112.26128472222224,0)" xlink:href="#aS"/></g><g id="F"><use transform="matrix(0.010850694444444444,0,0,0.010850694444444444,0,0)" xlink:href="#aU"/><use transform="matrix(0.010850694444444444,0,0,0.010850694444444444,13.823784722222221,0)" xlink:href="#aR"/><use transform="matrix(0.010850694444444444,0,0,0.010850694444444444,26.302083333333332,0)" xlink:href="#aS"/><use transform="matrix(0.010850694444444444,0,0,0.010850694444444444,33.35503472222222,0)" xlink:href="#aA"/><use transform="matrix(0.010850694444444444,0,0,0.010850694444444444,46.05034722222222,0)" xlink:href="#aB"/></g><path d="M180 0v-1490h190v1322h690V0H180" id="bs"/><g id="G"><use transform="matrix(0.010850694444444444,0,0,0.010850694444444444,0,0)" xlink:href="#ax"/><use transform="matrix(0.010850694444444444,0,0,0.010850694444444444,16.23263888888889,0)" xlink:href="#bs"/><use transform="matrix(0.010850694444444444,0,0,0.010850694444444444,28.79774305555556,0)" xlink:href="#aF"/></g><g id="H"><use transform="matrix(0.010850694444444444,0,0,0.010850694444444444,0,0)" xlink:href="#aR"/><use transform="matrix(0.010850694444444444,0,0,0.010850694444444444,12.47829861111111,0)" xlink:href="#ba"/><use transform="matrix(0.010850694444444444,0,0,0.010850694444444444,26.085069444444443,0)" xlink:href="#ba"/><use transform="matrix(0.010850694444444444,0,0,0.010850694444444444,39.69184027777777,0)" xlink:href="#bc"/><use transform="matrix(0.010850694444444444,0,0,0.010850694444444444,45.07378472222221,0)" xlink:href="#aL"/><use transform="matrix(0.010850694444444444,0,0,0.010850694444444444,50.45572916666666,0)" xlink:href="#aA"/><use transform="matrix(0.010850694444444444,0,0,0.010850694444444444,63.36805555555554,0)" xlink:href="#aR"/><use transform="matrix(0.010850694444444444,0,0,0.010850694444444444,75.84635416666666,0)" xlink:href="#aS"/><use transform="matrix(0.010850694444444444,0,0,0.010850694444444444,83.11631944444443,0)" xlink:href="#aL"/><use transform="matrix(0.010850694444444444,0,0,0.010850694444444444,88.49826388888887,0)" xlink:href="#ay"/><use transform="matrix(0.010850694444444444,0,0,0.010850694444444444,101.82291666666664,0)" xlink:href="#aQ"/></g><path d="M409 0L70-1118h191c89 329 165 560 243 925 75-353 154-601 240-925h192c85 325 161 564 235 922 77-354 157-598 244-922h191L1267 0h-179c-86-307-176-590-250-913C763-588 675-308 588 0H409" id="bt"/><g id="I"><use transform="matrix(0.010850694444444444,0,0,0.010850694444444444,0,0)" xlink:href="#bt"/><use transform="matrix(0.010850694444444444,0,0,0.010850694444444444,17.784288194444446,0)" xlink:href="#aC"/><use transform="matrix(0.010850694444444444,0,0,0.010850694444444444,30.740017361111114,0)" xlink:href="#aU"/></g><g id="J"><use transform="matrix(0.010850694444444444,0,0,0.010850694444444444,0,0)" xlink:href="#bm"/><use transform="matrix(0.010850694444444444,0,0,0.010850694444444444,15.33203125,0)" xlink:href="#aW"/><use transform="matrix(0.010850694444444444,0,0,0.010850694444444444,28.938802083333332,0)" xlink:href="#aP"/><use transform="matrix(0.010850694444444444,0,0,0.010850694444444444,48.404947916666664,0)" xlink:href="#aL"/><use transform="matrix(0.010850694444444444,0,0,0.010850694444444444,53.78689236111111,0)" xlink:href="#aQ"/><use transform="matrix(0.010850694444444444,0,0,0.010850694444444444,66.91623263888889,0)" xlink:href="#aL"/><use transform="matrix(0.010850694444444444,0,0,0.010850694444444444,72.29817708333333,0)" xlink:href="#aK"/><use transform="matrix(0.010850694444444444,0,0,0.010850694444444444,84.02777777777777,0)" xlink:href="#aS"/><use transform="matrix(0.010850694444444444,0,0,0.010850694444444444,91.29774305555556,0)" xlink:href="#aZ"/><use transform="matrix(0.010850694444444444,0,0,0.010850694444444444,99.66362847222221,0)" xlink:href="#aR"/><use transform="matrix(0.010850694444444444,0,0,0.010850694444444444,112.14192708333333,0)" xlink:href="#aS"/><use transform="matrix(0.010850694444444444,0,0,0.010850694444444444,119.19487847222221,0)" xlink:href="#aC"/><use transform="matrix(0.010850694444444444,0,0,0.010850694444444444,132.15060763888889,0)" xlink:href="#az"/><use transform="matrix(0.010850694444444444,0,0,0.010850694444444444,145.29079861111111,0)" xlink:href="#aZ"/></g><path fill="#3a414a" d="M628 22C291 22 81-210 81-554c0-346 210-578 547-578 265 0 455 142 497 372l-279 52c-25-116-99-188-215-188-160 0-244 139-244 341 0 200 84 341 244 341 116 0 193-74 217-195l279 51C1085-123 896 22 628 22" id="bu"/><path fill="#3a414a" d="M628 22C291 22 81-210 81-554c0-346 210-578 547-578 336 0 547 232 547 578 0 344-211 576-547 576zm0-236c160 0 242-146 242-341 0-197-82-341-242-341S387-753 387-555c0 195 81 341 241 341" id="bv"/><path fill="#3a414a" d="M128 0v-1118h278l12 217c60-163 185-234 319-234 143 0 236 81 288 251 63-172 205-251 359-251 205 0 357 138 357 381V0h-301v-697c0-126-76-187-177-187-114 0-184 79-184 196V0H789v-705c0-109-72-179-174-179-106 0-187 74-187 208V0H128" id="bw"/><path fill="#3a414a" d="M440 22C227 22 68-92 68-313c0-250 202-322 422-343 195-21 271-24 271-105 0-95-63-149-175-149-116 0-187 57-211 129l-275-46c57-194 237-305 487-305 240 0 474 108 474 379V0H777v-155h-10C713-51 605 22 440 22zm85-211c140 0 238-93 238-211v-121c-37 26-156 42-222 51-111 16-185 59-185 149 0 87 70 132 169 132" id="bx"/><path fill="#3a414a" d="M428-647V0H128v-1118h283l4 231c63-156 176-245 348-245 232 0 384 159 384 421V0H847v-659c0-139-76-222-202-222-128 0-217 86-217 234" id="by"/><path fill="#3a414a" d="M537 19C279 19 81-185 81-557c0-382 206-575 454-575 190 0 278 113 318 202h10v-560h300V0H868v-179h-15C812-89 719 19 537 19zm92-241c153 0 240-134 240-336 0-203-86-334-240-334-158 0-240 138-240 334 0 197 84 336 240 336" id="bz"/><path fill="#3a414a" d="M633 22C291 22 81-200 81-553c0-345 210-579 537-579 292 0 525 185 525 567v84H378c7 183 109 277 260 277 105 0 184-46 216-132l272 51C1071-99 893 22 633 22zM380-669h474c-15-146-94-237-233-237-143 0-229 99-241 237" id="bA"/><path fill="#3a414a" d="M572 22C302 22 117-98 78-306l279-48c29 105 101 156 224 156 114 0 185-48 185-115 0-118-228-130-337-155-215-49-322-150-322-317 0-215 187-347 470-347 265 0 424 116 466 298l-266 47c-24-76-87-130-196-130-98 0-174 46-174 113 0 56 38 95 144 117l201 40c216 44 320 143 320 302 0 220-207 367-500 367" id="bB"/><g id="K"><use transform="matrix(0.010850694444444444,0,0,0.010850694444444444,0,0)" xlink:href="#bu"/><use transform="matrix(0.010850694444444444,0,0,0.010850694444444444,13.075086805555555,0)" xlink:href="#bv"/><use transform="matrix(0.010850694444444444,0,0,0.010850694444444444,26.70355902777778,0)" xlink:href="#bw"/><use transform="matrix(0.010850694444444444,0,0,0.010850694444444444,46.98350694444444,0)" xlink:href="#bw"/><use transform="matrix(0.010850694444444444,0,0,0.010850694444444444,67.26345486111111,0)" xlink:href="#bx"/><use transform="matrix(0.010850694444444444,0,0,0.010850694444444444,80.16493055555556,0)" xlink:href="#by"/><use transform="matrix(0.010850694444444444,0,0,0.010850694444444444,93.99956597222221,0)" xlink:href="#bz"/><use transform="matrix(0.010850694444444444,0,0,0.010850694444444444,108.0078125,0)" xlink:href="#bA"/><use transform="matrix(0.010850694444444444,0,0,0.010850694444444444,121.24565972222224,0)" xlink:href="#bB"/></g><path fill="#3a414a" d="M789 20C394 20 94-260 94-744c0-487 300-766 695-766s695 279 695 766c0 485-300 764-695 764zm0-271c231 0 385-174 385-493 0-321-154-495-385-495s-385 175-385 495c0 319 154 493 385 493" id="bC"/><path fill="#3a414a" d="M135 0v-1490h340l471 754c59 97 122 210 187 365-32-387-14-721-19-1119h312V0h-341C855-382 627-689 427-1113c32 420 16 695 20 1113H135" id="bD"/><path fill="#3a414a" d="M768-1560L288 224H28l480-1784h260" id="bE"/><path fill="#3a414a" d="M135 0v-1490h980v253H440v416h609v249H440V0H135" id="bF"/><g id="L"><use transform="matrix(0.010850694444444444,0,0,0.010850694444444444,0,0)" xlink:href="#bC"/><use transform="matrix(0.010850694444444444,0,0,0.010850694444444444,17.122395833333332,0)" xlink:href="#bD"/><use transform="matrix(0.010850694444444444,0,0,0.010850694444444444,34.060329861111114,0)" xlink:href="#bE"/><use transform="matrix(0.010850694444444444,0,0,0.010850694444444444,42.68663194444444,0)" xlink:href="#bC"/><use transform="matrix(0.010850694444444444,0,0,0.010850694444444444,59.80902777777778,0)" xlink:href="#bF"/><use transform="matrix(0.010850694444444444,0,0,0.010850694444444444,72.8515625,0)" xlink:href="#bF"/></g><path fill="#3a414a" d="M786 20C389 20 94-260 94-744c0-487 299-766 692-766 339 0 597 194 641 529h-309c-28-162-156-258-326-258-233 0-388 179-388 495 0 323 157 493 387 493 170 0 298-97 328-259h309c-34 277-266 530-642 530" id="bG"/><path fill="#3a414a" d="M135 0v-1490h581c339 0 533 192 533 485 0 204-94 351-264 424L1302 0H964L680-532H440V0H135zm305-779h220c186 0 274-77 274-226 0-150-88-233-275-233H440v459" id="bH"/><path fill="#3a414a" d="M750 21c-371 0-615-218-615-544v-967h305v942c0 174 123 299 310 299s309-125 309-299v-942h306v967c0 326-247 544-615 544" id="bI"/><path fill="#3a414a" d="M659 0H135v-1490h529c448 0 721 280 721 744 0 466-273 746-726 746zM440-263h204c287 0 437-148 437-483 0-333-150-481-435-481H440v964" id="bJ"/><g id="M"><use transform="matrix(0.010850694444444444,0,0,0.010850694444444444,0,0)" xlink:href="#bG"/><use transform="matrix(0.010850694444444444,0,0,0.010850694444444444,16.438802083333332,0)" xlink:href="#bH"/><use transform="matrix(0.010850694444444444,0,0,0.010850694444444444,31.032986111111104,0)" xlink:href="#bI"/><use transform="matrix(0.010850694444444444,0,0,0.010850694444444444,47.29817708333333,0)" xlink:href="#bJ"/></g><g id="N"><use transform="matrix(0.010850694444444444,0,0,0.010850694444444444,0,0)" xlink:href="#bm"/><use transform="matrix(0.010850694444444444,0,0,0.010850694444444444,15.33203125,0)" xlink:href="#bj"/><use transform="matrix(0.010850694444444444,0,0,0.010850694444444444,28.96050347222222,0)" xlink:href="#aZ"/><use transform="matrix(0.010850694444444444,0,0,0.010850694444444444,37.67361111111111,0)" xlink:href="#aL"/><use transform="matrix(0.010850694444444444,0,0,0.010850694444444444,43.05555555555555,0)" xlink:href="#aA"/><use transform="matrix(0.010850694444444444,0,0,0.010850694444444444,55.75086805555555,0)" xlink:href="#az"/><use transform="matrix(0.010850694444444444,0,0,0.010850694444444444,68.89105902777777,0)" xlink:href="#bc"/><use transform="matrix(0.010850694444444444,0,0,0.010850694444444444,74.59852430555554,0)" xlink:href="#aS"/><use transform="matrix(0.010850694444444444,0,0,0.010850694444444444,81.65147569444443,0)" xlink:href="#aC"/><use transform="matrix(0.010850694444444444,0,0,0.010850694444444444,94.60720486111111,0)" xlink:href="#az"/><use transform="matrix(0.010850694444444444,0,0,0.010850694444444444,107.74739583333331,0)" xlink:href="#aZ"/></g><path fill="#3a414a" d="M128 0v-1118h290v195h12c54-169 184-238 367-200v268c-27-8-86-15-130-15-138 0-239 95-239 234V0H128" id="bK"/><path fill="#3a414a" d="M1163 418H863v-597h-10C812-89 719 19 537 19 279 19 81-185 81-557c0-382 206-575 454-575 190 0 278 113 318 202h15v-188h295V418zM629-222c153 0 240-134 240-336 0-203-86-334-240-334-158 0-240 138-240 334 0 197 84 336 240 336" id="bL"/><path fill="#3a414a" d="M513 14c-232 0-385-159-385-421v-711h300v659c0 139 76 222 202 222 127 0 217-86 217-234v-647h301V0H864l-4-232C797-74 683 14 513 14" id="bM"/><path fill="#3a414a" d="M633 22C291 22 81-200 81-553c0-345 210-579 537-579 292 0 525 185 525 567v84H378c7 183 109 277 260 277 105 0 184-46 216-132l272 51C1071-99 893 22 633 22zM470-1268H210v-7l288-296h230l289 296v7H755l-142-170zm-90 599h474c-15-146-94-237-233-237-143 0-229 99-241 237" id="bN"/><path fill="#3a414a" d="M683-1118v229H474v562c0 71 29 104 102 104 23 0 73-7 95-13l43 225C647 9 580 16 520 16 296 16 174-96 174-301v-588H20v-229h154v-266h300v266h209" id="bO"/><g id="O"><use transform="matrix(0.010850694444444444,0,0,0.010850694444444444,0,0)" xlink:href="#bK"/><use transform="matrix(0.010850694444444444,0,0,0.010850694444444444,8.506944444444445,0)" xlink:href="#bA"/><use transform="matrix(0.010850694444444444,0,0,0.010850694444444444,21.744791666666664,0)" xlink:href="#bL"/><use transform="matrix(0.010850694444444444,0,0,0.010850694444444444,35.75303819444444,0)" xlink:href="#bM"/><use transform="matrix(0.010850694444444444,0,0,0.010850694444444444,49.58767361111111,0)" xlink:href="#bN"/><use transform="matrix(0.010850694444444444,0,0,0.010850694444444444,62.82552083333333,0)" xlink:href="#bO"/><use transform="matrix(0.010850694444444444,0,0,0.010850694444444444,70.74652777777777,0)" xlink:href="#bA"/><use transform="matrix(0.010850694444444444,0,0,0.010850694444444444,83.984375,0)" xlink:href="#bB"/></g><path fill="#3a414a" d="M135 0v-1490h305v602h649v-602h306V0h-306v-635H440V0H135" id="bP"/><path fill="#3a414a" d="M75-1237v-253h1217v253H837V0H531v-1237H75" id="bQ"/><path fill="#3a414a" d="M135 0v-1490h581c339 0 533 210 533 503 0 295-197 500-540 500H440V0H135zm305-733h220c186 0 274-104 274-254s-88-251-275-251H440v505" id="bR"/><g id="P"><use transform="matrix(0.010850694444444444,0,0,0.010850694444444444,0,0)" xlink:href="#bP"/><use transform="matrix(0.010850694444444444,0,0,0.010850694444444444,16.6015625,0)" xlink:href="#bQ"/><use transform="matrix(0.010850694444444444,0,0,0.010850694444444444,31.43446180555556,0)" xlink:href="#bQ"/><use transform="matrix(0.010850694444444444,0,0,0.010850694444444444,46.26736111111111,0)" xlink:href="#bR"/></g><g id="Q"><use transform="matrix(0.010850694444444444,0,0,0.010850694444444444,0,0)" xlink:href="#bw"/><use transform="matrix(0.010850694444444444,0,0,0.010850694444444444,20.279947916666664,0)" xlink:href="#bA"/><use transform="matrix(0.010850694444444444,0,0,0.010850694444444444,33.517795138888886,0)" xlink:href="#bB"/><use transform="matrix(0.010850694444444444,0,0,0.010850694444444444,45.963541666666664,0)" xlink:href="#bM"/><use transform="matrix(0.010850694444444444,0,0,0.010850694444444444,59.79817708333333,0)" xlink:href="#bK"/><use transform="matrix(0.010850694444444444,0,0,0.010850694444444444,68.30512152777777,0)" xlink:href="#bA"/><use transform="matrix(0.010850694444444444,0,0,0.010850694444444444,81.54296875,0)" xlink:href="#bB"/></g><path fill="#3a414a" d="M128 418v-1536h295v188h14c41-89 129-202 319-202 248 0 453 193 453 575 0 372-197 576-455 576-183 0-275-108-317-198h-9v597H128zm534-640c156 0 240-139 240-336 0-196-83-334-240-334-154 0-241 131-241 334 0 202 88 336 241 336" id="bS"/><path fill="#3a414a" d="M754 19C571 19 479-89 437-179h-14V0H128v-1490h300v560h9c41-89 129-202 319-202 248 0 453 193 453 575 0 372-197 576-455 576zm-92-241c156 0 240-139 240-336 0-196-83-334-240-334-154 0-241 131-241 334 0 202 88 336 241 336" id="bT"/><path fill="#3a414a" d="M428-1490V0H128v-1490h300" id="bU"/><path fill="#3a414a" d="M128 0v-1118h300V0H128zm150-1264c-91 0-165-68-165-154 0-85 74-154 165-154 90 0 165 69 165 154 0 86-75 154-165 154" id="bV"/><g id="R"><use transform="matrix(0.010850694444444444,0,0,0.010850694444444444,0,0)" xlink:href="#bS"/><use transform="matrix(0.010850694444444444,0,0,0.010850694444444444,14.008246527777777,0)" xlink:href="#bM"/><use transform="matrix(0.010850694444444444,0,0,0.010850694444444444,27.842881944444443,0)" xlink:href="#bT"/><use transform="matrix(0.010850694444444444,0,0,0.010850694444444444,41.85112847222222,0)" xlink:href="#bU"/><use transform="matrix(0.010850694444444444,0,0,0.010850694444444444,47.873263888888886,0)" xlink:href="#bV"/><use transform="matrix(0.010850694444444444,0,0,0.010850694444444444,53.89539930555556,0)" xlink:href="#bA"/></g><g id="S"><use transform="matrix(0.010850694444444444,0,0,0.010850694444444444,0,0)" xlink:href="#bw"/><use transform="matrix(0.010850694444444444,0,0,0.010850694444444444,20.279947916666664,0)" xlink:href="#bA"/><use transform="matrix(0.010850694444444444,0,0,0.010850694444444444,33.517795138888886,0)" xlink:href="#bB"/><use transform="matrix(0.010850694444444444,0,0,0.010850694444444444,45.963541666666664,0)" xlink:href="#bM"/><use transform="matrix(0.010850694444444444,0,0,0.010850694444444444,59.79817708333333,0)" xlink:href="#bK"/><use transform="matrix(0.010850694444444444,0,0,0.010850694444444444,68.30512152777777,0)" xlink:href="#bA"/><use transform="matrix(0.010850694444444444,0,0,0.010850694444444444,81.54296875,0)" xlink:href="#bB"/></g><g id="T"><use transform="matrix(0.010850694444444444,0,0,0.010850694444444444,0,0)" xlink:href="#bx"/><use transform="matrix(0.010850694444444444,0,0,0.010850694444444444,12.901475694444445,0)" xlink:href="#bu"/><use transform="matrix(0.010850694444444444,0,0,0.010850694444444444,25.9765625,0)" xlink:href="#bO"/><use transform="matrix(0.010850694444444444,0,0,0.010850694444444444,34.114583333333336,0)" xlink:href="#bV"/><use transform="matrix(0.010850694444444444,0,0,0.010850694444444444,40.13671875,0)" xlink:href="#bv"/><use transform="matrix(0.010850694444444444,0,0,0.010850694444444444,53.76519097222222,0)" xlink:href="#by"/><use transform="matrix(0.010850694444444444,0,0,0.010850694444444444,67.59982638888889,0)" xlink:href="#by"/><use transform="matrix(0.010850694444444444,0,0,0.010850694444444444,81.43446180555556,0)" xlink:href="#bA"/><use transform="matrix(0.010850694444444444,0,0,0.010850694444444444,94.67230902777777,0)" xlink:href="#bM"/><use transform="matrix(0.010850694444444444,0,0,0.010850694444444444,108.50694444444444,0)" xlink:href="#bK"/><use transform="matrix(0.010850694444444444,0,0,0.010850694444444444,117.5564236111111,0)" xlink:href="#bB"/></g><path fill="#3a414a" d="M42 0l360-574-338-544h324c72 124 151 261 209 394 58-134 140-271 215-394h318L785-570 1146 0H824c-79-136-169-280-234-425C528-278 439-134 360 0H42" id="bW"/><path fill="#3a414a" d="M633 22C291 22 81-200 81-553c0-345 210-579 537-579 292 0 525 185 525 567v84H378c7 183 109 277 260 277 105 0 184-46 216-132l272 51C1071-99 893 22 633 22zM380-669h474c-15-146-94-237-233-237-143 0-229 99-241 237zm125-591l138-311h279l-207 311H505" id="bX"/><g id="U"><use transform="matrix(0.010850694444444444,0,0,0.010850694444444444,0,0)" xlink:href="#bA"/><use transform="matrix(0.010850694444444444,0,0,0.010850694444444444,12.79296875,0)" xlink:href="#bW"/><use transform="matrix(0.010850694444444444,0,0,0.010850694444444444,25.23871527777778,0)" xlink:href="#bX"/><use transform="matrix(0.010850694444444444,0,0,0.010850694444444444,38.4765625,0)" xlink:href="#bu"/><use transform="matrix(0.010850694444444444,0,0,0.010850694444444444,51.55164930555556,0)" xlink:href="#bM"/><use transform="matrix(0.010850694444444444,0,0,0.010850694444444444,65.38628472222223,0)" xlink:href="#bO"/><use transform="matrix(0.010850694444444444,0,0,0.010850694444444444,73.52430555555556,0)" xlink:href="#bV"/><use transform="matrix(0.010850694444444444,0,0,0.010850694444444444,79.54644097222223,0)" xlink:href="#bv"/><use transform="matrix(0.010850694444444444,0,0,0.010850694444444444,93.17491319444446,0)" xlink:href="#by"/></g><g id="V"><use transform="matrix(0.010850694444444444,0,0,0.010850694444444444,0,0)" xlink:href="#aU"/><use transform="matrix(0.010850694444444444,0,0,0.010850694444444444,13.823784722222221,0)" xlink:href="#aR"/><use transform="matrix(0.010850694444444444,0,0,0.010850694444444444,26.302083333333332,0)" xlink:href="#aK"/><use transform="matrix(0.010850694444444444,0,0,0.010850694444444444,38.03168402777778,0)" xlink:href="#aC"/></g><g id="W"><use transform="matrix(0.010850694444444444,0,0,0.010850694444444444,0,0)" xlink:href="#aW"/><use transform="matrix(0.010850694444444444,0,0,0.010850694444444444,13.606770833333332,0)" xlink:href="#aC"/></g><g id="X"><use transform="matrix(0.010850694444444444,0,0,0.010850694444444444,0,0)" xlink:href="#aW"/><use transform="matrix(0.010850694444444444,0,0,0.010850694444444444,13.606770833333332,0)" xlink:href="#ay"/><use transform="matrix(0.010850694444444444,0,0,0.010850694444444444,26.931423611111104,0)" xlink:href="#aQ"/><use transform="matrix(0.010850694444444444,0,0,0.010850694444444444,40.060763888888886,0)" xlink:href="#aQ"/><use transform="matrix(0.010850694444444444,0,0,0.010850694444444444,53.190104166666664,0)" xlink:href="#bb"/><use transform="matrix(0.010850694444444444,0,0,0.010850694444444444,66.14583333333333,0)" xlink:href="#aC"/><use transform="matrix(0.010850694444444444,0,0,0.010850694444444444,79.1015625,0)" xlink:href="#aK"/></g><g id="Y"><use transform="matrix(0.010850694444444444,0,0,0.010850694444444444,0,0)" xlink:href="#bm"/><use transform="matrix(0.010850694444444444,0,0,0.010850694444444444,15.33203125,0)" xlink:href="#aI"/><use transform="matrix(0.010850694444444444,0,0,0.010850694444444444,29.524739583333332,0)" xlink:href="#aF"/></g><g id="Z"><use transform="matrix(0.010850694444444444,0,0,0.010850694444444444,0,0)" xlink:href="#aU"/><use transform="matrix(0.010850694444444444,0,0,0.010850694444444444,13.823784722222221,0)" xlink:href="#aR"/><use transform="matrix(0.010850694444444444,0,0,0.010850694444444444,26.302083333333332,0)" xlink:href="#aA"/><use transform="matrix(0.010850694444444444,0,0,0.010850694444444444,38.99739583333333,0)" xlink:href="#aV"/><use transform="matrix(0.010850694444444444,0,0,0.010850694444444444,50.69444444444444,0)" xlink:href="#aC"/><use transform="matrix(0.010850694444444444,0,0,0.010850694444444444,63.65017361111111,0)" xlink:href="#aQ"/><use transform="matrix(0.010850694444444444,0,0,0.010850694444444444,76.77951388888889,0)" xlink:href="#aW"/></g><g id="aa"><use transform="matrix(0.010850694444444444,0,0,0.010850694444444444,0,0)" xlink:href="#bB"/><use transform="matrix(0.010850694444444444,0,0,0.010850694444444444,12.445746527777777,0)" xlink:href="#bv"/><use transform="matrix(0.010850694444444444,0,0,0.010850694444444444,26.07421875,0)" xlink:href="#bM"/><use transform="matrix(0.010850694444444444,0,0,0.010850694444444444,39.908854166666664,0)" xlink:href="#bB"/><use transform="matrix(0.010850694444444444,0,0,0.010850694444444444,52.35460069444444,0)" xlink:href="#bu"/><use transform="matrix(0.010850694444444444,0,0,0.010850694444444444,65.4296875,0)" xlink:href="#bK"/><use transform="matrix(0.010850694444444444,0,0,0.010850694444444444,74.64192708333334,0)" xlink:href="#bV"/><use transform="matrix(0.010850694444444444,0,0,0.010850694444444444,80.66406250000001,0)" xlink:href="#bO"/></g><g id="ab"><use transform="matrix(0.010850694444444444,0,0,0.010850694444444444,0,0)" xlink:href="#bz"/><use transform="matrix(0.010850694444444444,0,0,0.010850694444444444,14.008246527777777,0)" xlink:href="#bv"/><use transform="matrix(0.010850694444444444,0,0,0.010850694444444444,27.63671875,0)" xlink:href="#by"/><use transform="matrix(0.010850694444444444,0,0,0.010850694444444444,41.471354166666664,0)" xlink:href="#by"/><use transform="matrix(0.010850694444444444,0,0,0.010850694444444444,55.30598958333333,0)" xlink:href="#bX"/><use transform="matrix(0.010850694444444444,0,0,0.010850694444444444,68.54383680555554,0)" xlink:href="#bA"/><use transform="matrix(0.010850694444444444,0,0,0.010850694444444444,81.78168402777777,0)" xlink:href="#bB"/></g><g id="ac"><use transform="matrix(0.010850694444444444,0,0,0.010850694444444444,0,0)" xlink:href="#bz"/><use transform="matrix(0.010850694444444444,0,0,0.010850694444444444,14.008246527777777,0)" xlink:href="#bv"/><use transform="matrix(0.010850694444444444,0,0,0.010850694444444444,27.63671875,0)" xlink:href="#by"/><use transform="matrix(0.010850694444444444,0,0,0.010850694444444444,41.471354166666664,0)" xlink:href="#by"/><use transform="matrix(0.010850694444444444,0,0,0.010850694444444444,55.30598958333333,0)" xlink:href="#bX"/><use transform="matrix(0.010850694444444444,0,0,0.010850694444444444,68.54383680555554,0)" xlink:href="#bA"/><use transform="matrix(0.010850694444444444,0,0,0.010850694444444444,81.78168402777777,0)" xlink:href="#bB"/></g><path fill="#3a414a" d="M568-82v-393H183v-240h385v-393h254v393h386v240H822v393H568" id="bY"/><use transform="matrix(0.010850694444444444,0,0,0.010850694444444444,0,0)" xlink:href="#bY" id="ad"/><g id="ae"><use transform="matrix(0.010850694444444444,0,0,0.010850694444444444,0,0)" xlink:href="#bx"/><use transform="matrix(0.010850694444444444,0,0,0.010850694444444444,12.901475694444445,0)" xlink:href="#bU"/><use transform="matrix(0.010850694444444444,0,0,0.010850694444444444,18.92361111111111,0)" xlink:href="#bA"/><use transform="matrix(0.010850694444444444,0,0,0.010850694444444444,32.16145833333333,0)" xlink:href="#bK"/><use transform="matrix(0.010850694444444444,0,0,0.010850694444444444,41.64496527777777,0)" xlink:href="#bO"/><use transform="matrix(0.010850694444444444,0,0,0.010850694444444444,49.56597222222222,0)" xlink:href="#bA"/><use transform="matrix(0.010850694444444444,0,0,0.010850694444444444,62.80381944444444,0)" xlink:href="#bB"/></g><g id="af"><use transform="matrix(0.010850694444444444,0,0,0.010850694444444444,0,0)" xlink:href="#bM"/><use transform="matrix(0.010850694444444444,0,0,0.010850694444444444,13.834635416666666,0)" xlink:href="#bO"/><use transform="matrix(0.010850694444444444,0,0,0.010850694444444444,21.97265625,0)" xlink:href="#bV"/><use transform="matrix(0.010850694444444444,0,0,0.010850694444444444,27.994791666666664,0)" xlink:href="#bU"/><use transform="matrix(0.010850694444444444,0,0,0.010850694444444444,34.01692708333333,0)" xlink:href="#bV"/><use transform="matrix(0.010850694444444444,0,0,0.010850694444444444,40.03906249999999,0)" xlink:href="#bB"/><use transform="matrix(0.010850694444444444,0,0,0.010850694444444444,52.48480902777778,0)" xlink:href="#bx"/><use transform="matrix(0.010850694444444444,0,0,0.010850694444444444,65.38628472222221,0)" xlink:href="#bO"/><use transform="matrix(0.010850694444444444,0,0,0.010850694444444444,73.30729166666666,0)" xlink:href="#bA"/><use transform="matrix(0.010850694444444444,0,0,0.010850694444444444,86.54513888888889,0)" xlink:href="#bM"/><use transform="matrix(0.010850694444444444,0,0,0.010850694444444444,100.37977430555556,0)" xlink:href="#bK"/></g><path d="M180 0v-1490h270l367 940c28 72 75 218 110 339 35-117 81-264 110-339l362-940h271V0h-187c2-448-5-837 7-1287-157 497-311 829-483 1287H842C666-458 514-784 354-1284c12 438 5 843 7 1284H180" id="bZ"/><path d="M784 20c-382 0-662-292-662-764 0-473 280-766 662-766s660 293 660 766c0 282-99 499-260 629l192 255h-198L1049-33C969 2 880 20 784 20zm-62-486h198l156 205c112-98 183-261 183-483 0-383-209-590-475-590-268 0-477 208-477 590 0 380 209 588 477 588 54 0 106-9 154-25" id="ca"/><g id="ag"><use transform="matrix(0.010850694444444444,0,0,0.010850694444444444,0,0)" xlink:href="#bZ"/><use transform="matrix(0.010850694444444444,0,0,0.010850694444444444,20.07378472222222,0)" xlink:href="#ca"/><use transform="matrix(0.010850694444444444,0,0,0.010850694444444444,36.404079861111114,0)" xlink:href="#aG"/><use transform="matrix(0.010850694444444444,0,0,0.010850694444444444,50.74869791666667,0)" xlink:href="#aG"/></g><path d="M180 0v-1490h528c311 0 458 177 458 395 0 191-114 278-244 313v14c139 9 302 137 302 371 0 225-148 397-499 397H180zm190-168h350c232 0 321-102 321-231 0-149-120-277-311-277H370v508zm0-668h328c160 0 286-101 286-255 0-129-87-231-280-231H370v486" id="cb"/><g id="ah"><use transform="matrix(0.010850694444444444,0,0,0.010850694444444444,0,0)" xlink:href="#cb"/><use transform="matrix(0.010850694444444444,0,0,0.010850694444444444,14.539930555555555,0)" xlink:href="#aZ"/><use transform="matrix(0.010850694444444444,0,0,0.010850694444444444,22.53689236111111,0)" xlink:href="#ay"/><use transform="matrix(0.010850694444444444,0,0,0.010850694444444444,35.861545138888886,0)" xlink:href="#aV"/><use transform="matrix(0.010850694444444444,0,0,0.010850694444444444,47.55859375,0)" xlink:href="#aC"/><use transform="matrix(0.010850694444444444,0,0,0.010850694444444444,60.514322916666664,0)" xlink:href="#aZ"/></g><path fill="#3a414a" d="M443 0L31-1118h319c90 293 199 572 268 885 66-313 175-593 264-885h315L784 0H443" id="cc"/><path fill="#3a414a" d="M625 442c-280 0-454-114-503-274l258-72c28 63 97 128 243 128 153 0 246-69 246-216v-206h-23C805-108 717-16 536-16 284-16 81-191 81-561c0-378 208-571 456-571 188 0 280 113 321 202h13v-188h295V-9c0 303-226 451-541 451zm5-686c153 0 240-119 240-319 0-198-86-329-240-329-158 0-241 137-241 329 0 195 85 319 241 319" id="cd"/><g id="ai"><use transform="matrix(0.010850694444444444,0,0,0.010850694444444444,0,0)" xlink:href="#by"/><use transform="matrix(0.010850694444444444,0,0,0.010850694444444444,13.834635416666666,0)" xlink:href="#bx"/><use transform="matrix(0.010850694444444444,0,0,0.010850694444444444,26.35633680555556,0)" xlink:href="#cc"/><use transform="matrix(0.010850694444444444,0,0,0.010850694444444444,39.680989583333336,0)" xlink:href="#bV"/><use transform="matrix(0.010850694444444444,0,0,0.010850694444444444,45.703125,0)" xlink:href="#cd"/><use transform="matrix(0.010850694444444444,0,0,0.010850694444444444,59.74392361111112,0)" xlink:href="#bx"/><use transform="matrix(0.010850694444444444,0,0,0.010850694444444444,72.64539930555556,0)" xlink:href="#bO"/><use transform="matrix(0.010850694444444444,0,0,0.010850694444444444,80.78342013888889,0)" xlink:href="#bV"/><use transform="matrix(0.010850694444444444,0,0,0.010850694444444444,86.80555555555556,0)" xlink:href="#bv"/><use transform="matrix(0.010850694444444444,0,0,0.010850694444444444,100.43402777777777,0)" xlink:href="#by"/></g><g id="aj"><use transform="matrix(0.010850694444444444,0,0,0.010850694444444444,0,0)" xlink:href="#cd"/><use transform="matrix(0.010850694444444444,0,0,0.010850694444444444,14.04079861111111,0)" xlink:href="#bA"/><use transform="matrix(0.010850694444444444,0,0,0.010850694444444444,27.278645833333332,0)" xlink:href="#bB"/><use transform="matrix(0.010850694444444444,0,0,0.010850694444444444,39.72439236111111,0)" xlink:href="#bO"/><use transform="matrix(0.010850694444444444,0,0,0.010850694444444444,47.86241319444444,0)" xlink:href="#bV"/><use transform="matrix(0.010850694444444444,0,0,0.010850694444444444,53.88454861111111,0)" xlink:href="#bv"/><use transform="matrix(0.010850694444444444,0,0,0.010850694444444444,67.51302083333333,0)" xlink:href="#by"/></g></defs></g></svg>